<mxfile host="app.diagrams.net" modified="2022-03-12T05:32:49.252Z" agent="5.0 (Windows NT 10.0; Win64; x64) AppleWebKit/537.36 (KHTML, like Gecko) Chrome/99.0.4844.51 Safari/537.36" etag="nn21IYsYoQYABQUVPkNL" version="17.0.0" type="github" pages="2">
  <diagram id="4qH0fOlXbaoLmIftmwyH" name="arch">
    <mxGraphModel dx="813" dy="510" grid="1" gridSize="10" guides="1" tooltips="1" connect="1" arrows="1" fold="1" page="1" pageScale="1" pageWidth="827" pageHeight="1169" math="0" shadow="0">
      <root>
        <mxCell id="0" />
        <mxCell id="1" parent="0" />
        <mxCell id="Gd194iZNTgvZzF-imaFf-1" value="" style="rounded=1;whiteSpace=wrap;html=1;strokeWidth=2;fillWeight=4;hachureGap=8;hachureAngle=45;sketch=0;" vertex="1" parent="1">
          <mxGeometry x="110" y="110" width="110" height="130" as="geometry" />
        </mxCell>
        <mxCell id="32o6nJwJ4vGhFMCpq_lp-70" value="" style="rounded=1;whiteSpace=wrap;html=1;strokeWidth=2;fillWeight=4;hachureGap=8;hachureAngle=45;sketch=0;dashed=1;fillColor=#f5f5f5;fontColor=#333333;strokeColor=#666666;" parent="1" vertex="1">
          <mxGeometry x="300" y="90" width="320" height="180" as="geometry" />
        </mxCell>
        <mxCell id="32o6nJwJ4vGhFMCpq_lp-50" value="" style="rounded=1;whiteSpace=wrap;html=1;strokeWidth=2;fillWeight=4;hachureGap=8;hachureAngle=45;sketch=0;" parent="1" vertex="1">
          <mxGeometry x="100" y="100" width="110" height="130" as="geometry" />
        </mxCell>
        <mxCell id="32o6nJwJ4vGhFMCpq_lp-2" value="" style="rounded=1;whiteSpace=wrap;html=1;strokeWidth=2;fillWeight=4;hachureGap=8;hachureAngle=45;sketch=0;dashed=1;fillColor=#f8cecc;strokeColor=#b85450;" parent="1" vertex="1">
          <mxGeometry x="90" y="280" width="530" height="160" as="geometry" />
        </mxCell>
        <mxCell id="32o6nJwJ4vGhFMCpq_lp-3" value="" style="rounded=1;whiteSpace=wrap;html=1;strokeWidth=2;fillWeight=4;hachureGap=8;hachureAngle=45;sketch=0;" parent="1" vertex="1">
          <mxGeometry x="100" y="290" width="210" height="140" as="geometry" />
        </mxCell>
        <mxCell id="32o6nJwJ4vGhFMCpq_lp-4" value="file1_0" style="rounded=1;whiteSpace=wrap;html=1;strokeWidth=2;fillWeight=1;hachureGap=4;hachureAngle=45;sketch=0;fillColor=#d5e8d4;strokeColor=#82b366;jiggle=1;" parent="1" vertex="1">
          <mxGeometry x="110" y="330" width="40" height="40" as="geometry" />
        </mxCell>
        <mxCell id="32o6nJwJ4vGhFMCpq_lp-5" value="file2_0" style="rounded=1;whiteSpace=wrap;html=1;strokeWidth=2;fillWeight=1;hachureGap=4;hachureAngle=45;sketch=0;fillColor=#f8cecc;strokeColor=#b85450;" parent="1" vertex="1">
          <mxGeometry x="160" y="330" width="40" height="40" as="geometry" />
        </mxCell>
        <mxCell id="32o6nJwJ4vGhFMCpq_lp-6" value="file3_0" style="rounded=1;whiteSpace=wrap;html=1;strokeWidth=2;fillWeight=1;hachureGap=4;hachureAngle=45;sketch=0;fillColor=#fff2cc;strokeColor=#d6b656;" parent="1" vertex="1">
          <mxGeometry x="210" y="330" width="40" height="40" as="geometry" />
        </mxCell>
        <mxCell id="32o6nJwJ4vGhFMCpq_lp-7" value="file3_1" style="rounded=1;whiteSpace=wrap;html=1;strokeWidth=2;fillWeight=1;hachureGap=4;hachureAngle=45;sketch=0;fillColor=#fff2cc;strokeColor=#d6b656;" parent="1" vertex="1">
          <mxGeometry x="260" y="330" width="40" height="40" as="geometry" />
        </mxCell>
        <mxCell id="32o6nJwJ4vGhFMCpq_lp-8" value="file4_0" style="rounded=1;whiteSpace=wrap;html=1;strokeWidth=2;fillWeight=1;hachureGap=4;hachureAngle=45;sketch=0;fillColor=#e1d5e7;strokeColor=#9673a6;" parent="1" vertex="1">
          <mxGeometry x="110" y="380" width="40" height="40" as="geometry" />
        </mxCell>
        <mxCell id="32o6nJwJ4vGhFMCpq_lp-9" value="" style="rounded=1;whiteSpace=wrap;html=1;strokeWidth=2;fillWeight=1;hachureGap=4;hachureAngle=45;sketch=0;fillColor=#dae8fc;strokeColor=#6c8ebf;" parent="1" vertex="1">
          <mxGeometry x="160" y="380" width="40" height="40" as="geometry" />
        </mxCell>
        <mxCell id="32o6nJwJ4vGhFMCpq_lp-10" value="" style="rounded=1;whiteSpace=wrap;html=1;strokeWidth=2;fillWeight=1;hachureGap=4;hachureAngle=45;sketch=0;fillColor=#f5f5f5;strokeColor=#666666;fontColor=#333333;" parent="1" vertex="1">
          <mxGeometry x="210" y="380" width="40" height="40" as="geometry" />
        </mxCell>
        <mxCell id="32o6nJwJ4vGhFMCpq_lp-11" value="..." style="rounded=1;whiteSpace=wrap;html=1;strokeWidth=2;fillWeight=4;hachureGap=8;hachureAngle=45;sketch=0;fillColor=#FFFFFF;" parent="1" vertex="1">
          <mxGeometry x="260" y="380" width="40" height="40" as="geometry" />
        </mxCell>
        <mxCell id="32o6nJwJ4vGhFMCpq_lp-16" value="Data Pool" style="text;html=1;align=center;verticalAlign=middle;resizable=0;points=[];autosize=1;strokeColor=none;" parent="1" vertex="1">
          <mxGeometry x="175" y="300" width="70" height="20" as="geometry" />
        </mxCell>
        <mxCell id="32o6nJwJ4vGhFMCpq_lp-17" value="" style="rounded=1;whiteSpace=wrap;html=1;strokeWidth=2;fillWeight=4;hachureGap=8;hachureAngle=45;sketch=0;" parent="1" vertex="1">
          <mxGeometry x="400" y="290" width="210" height="140" as="geometry" />
        </mxCell>
        <mxCell id="32o6nJwJ4vGhFMCpq_lp-18" value="dir0" style="rounded=1;whiteSpace=wrap;html=1;strokeWidth=2;fillWeight=1;hachureGap=4;hachureAngle=45;sketch=0;" parent="1" vertex="1">
          <mxGeometry x="510" y="330" width="40" height="40" as="geometry" />
        </mxCell>
        <mxCell id="32o6nJwJ4vGhFMCpq_lp-19" value="dir1" style="rounded=1;whiteSpace=wrap;html=1;strokeWidth=2;fillWeight=1;hachureGap=4;hachureAngle=45;sketch=0;" parent="1" vertex="1">
          <mxGeometry x="410" y="330" width="40" height="40" as="geometry" />
        </mxCell>
        <mxCell id="32o6nJwJ4vGhFMCpq_lp-20" value="dir2" style="rounded=1;whiteSpace=wrap;html=1;strokeWidth=2;fillWeight=1;hachureGap=4;hachureAngle=45;sketch=0;" parent="1" vertex="1">
          <mxGeometry x="460" y="330" width="40" height="40" as="geometry" />
        </mxCell>
        <mxCell id="32o6nJwJ4vGhFMCpq_lp-21" value="" style="rounded=1;whiteSpace=wrap;html=1;strokeWidth=2;fillWeight=4;hachureGap=8;hachureAngle=45;sketch=0;fillColor=#FFFFFF;" parent="1" vertex="1">
          <mxGeometry x="560" y="330" width="40" height="40" as="geometry" />
        </mxCell>
        <mxCell id="32o6nJwJ4vGhFMCpq_lp-22" value="dir4" style="rounded=1;whiteSpace=wrap;html=1;strokeWidth=2;fillWeight=1;hachureGap=4;hachureAngle=45;sketch=0;" parent="1" vertex="1">
          <mxGeometry x="410" y="380" width="40" height="40" as="geometry" />
        </mxCell>
        <mxCell id="32o6nJwJ4vGhFMCpq_lp-23" value="" style="rounded=1;whiteSpace=wrap;html=1;strokeWidth=2;fillWeight=1;hachureGap=4;hachureAngle=45;sketch=0;" parent="1" vertex="1">
          <mxGeometry x="460" y="380" width="40" height="40" as="geometry" />
        </mxCell>
        <mxCell id="32o6nJwJ4vGhFMCpq_lp-24" value="" style="rounded=1;whiteSpace=wrap;html=1;strokeWidth=2;fillWeight=1;hachureGap=4;hachureAngle=45;sketch=0;" parent="1" vertex="1">
          <mxGeometry x="510" y="380" width="40" height="40" as="geometry" />
        </mxCell>
        <mxCell id="32o6nJwJ4vGhFMCpq_lp-25" value="..." style="rounded=1;whiteSpace=wrap;html=1;strokeWidth=2;fillWeight=4;hachureGap=8;hachureAngle=45;sketch=0;fillColor=#FFFFFF;" parent="1" vertex="1">
          <mxGeometry x="560" y="380" width="40" height="40" as="geometry" />
        </mxCell>
        <mxCell id="32o6nJwJ4vGhFMCpq_lp-30" value="Meta Pool" style="text;html=1;align=center;verticalAlign=middle;resizable=0;points=[];autosize=1;strokeColor=none;" parent="1" vertex="1">
          <mxGeometry x="475" y="300" width="70" height="20" as="geometry" />
        </mxCell>
        <mxCell id="32o6nJwJ4vGhFMCpq_lp-31" value="RADOS" style="text;html=1;align=center;verticalAlign=middle;resizable=0;points=[];autosize=1;strokeColor=none;fontSize=14;fontStyle=1" parent="1" vertex="1">
          <mxGeometry x="320" y="350" width="70" height="20" as="geometry" />
        </mxCell>
        <mxCell id="32o6nJwJ4vGhFMCpq_lp-43" style="edgeStyle=orthogonalEdgeStyle;rounded=0;orthogonalLoop=1;jettySize=auto;html=1;fontSize=14;sketch=0;curved=1;entryX=0.213;entryY=-0.008;entryDx=0;entryDy=0;entryPerimeter=0;" parent="1" source="32o6nJwJ4vGhFMCpq_lp-33" target="32o6nJwJ4vGhFMCpq_lp-3" edge="1">
          <mxGeometry relative="1" as="geometry">
            <mxPoint x="153" y="290" as="targetPoint" />
          </mxGeometry>
        </mxCell>
        <mxCell id="32o6nJwJ4vGhFMCpq_lp-71" style="edgeStyle=orthogonalEdgeStyle;curved=1;rounded=0;sketch=0;orthogonalLoop=1;jettySize=auto;html=1;fontSize=14;startArrow=none;startFill=0;strokeColor=#000000;exitX=1.014;exitY=0.697;exitDx=0;exitDy=0;exitPerimeter=0;" parent="1" source="32o6nJwJ4vGhFMCpq_lp-33" target="32o6nJwJ4vGhFMCpq_lp-70" edge="1">
          <mxGeometry relative="1" as="geometry" />
        </mxCell>
        <mxCell id="32o6nJwJ4vGhFMCpq_lp-33" value="" style="rounded=1;whiteSpace=wrap;html=1;strokeWidth=2;fillWeight=4;hachureGap=8;hachureAngle=45;sketch=0;" parent="1" vertex="1">
          <mxGeometry x="90" y="90" width="110" height="130" as="geometry" />
        </mxCell>
        <mxCell id="32o6nJwJ4vGhFMCpq_lp-55" style="edgeStyle=orthogonalEdgeStyle;curved=1;rounded=0;sketch=0;orthogonalLoop=1;jettySize=auto;html=1;entryX=0.5;entryY=0;entryDx=0;entryDy=0;fontSize=14;startArrow=classic;startFill=1;strokeColor=#EA6B66;" parent="1" source="32o6nJwJ4vGhFMCpq_lp-34" target="32o6nJwJ4vGhFMCpq_lp-35" edge="1">
          <mxGeometry relative="1" as="geometry" />
        </mxCell>
        <mxCell id="32o6nJwJ4vGhFMCpq_lp-34" value="" style="ellipse;whiteSpace=wrap;html=1;aspect=fixed;sketch=1;fillWeight=1;hachureGap=4;jiggle=1;fontSize=14;strokeWidth=2;strokeColor=#EA6B66;fillColor=#EA6B66;" parent="1" vertex="1">
          <mxGeometry x="460" y="100" width="60" height="60" as="geometry" />
        </mxCell>
        <mxCell id="32o6nJwJ4vGhFMCpq_lp-49" style="edgeStyle=orthogonalEdgeStyle;curved=1;rounded=0;sketch=0;orthogonalLoop=1;jettySize=auto;html=1;entryX=0.429;entryY=0;entryDx=0;entryDy=0;entryPerimeter=0;fontSize=14;" parent="1" source="32o6nJwJ4vGhFMCpq_lp-35" target="32o6nJwJ4vGhFMCpq_lp-17" edge="1">
          <mxGeometry relative="1" as="geometry" />
        </mxCell>
        <mxCell id="32o6nJwJ4vGhFMCpq_lp-35" value="" style="ellipse;whiteSpace=wrap;html=1;aspect=fixed;sketch=1;fillWeight=1;hachureGap=4;jiggle=1;fontSize=14;strokeWidth=2;fillColor=#EA6B66;strokeColor=#EA6B66;" parent="1" vertex="1">
          <mxGeometry x="460" y="200" width="60" height="60" as="geometry" />
        </mxCell>
        <mxCell id="32o6nJwJ4vGhFMCpq_lp-36" value="Standby" style="ellipse;whiteSpace=wrap;html=1;aspect=fixed;sketch=1;fillWeight=1;hachureGap=4;jiggle=1;fontSize=14;strokeColor=#6c8ebf;strokeWidth=2;fillColor=#FFFFFF;" parent="1" vertex="1">
          <mxGeometry x="550" y="200" width="60" height="60" as="geometry" />
        </mxCell>
        <mxCell id="32o6nJwJ4vGhFMCpq_lp-37" value="file1" style="rounded=1;whiteSpace=wrap;html=1;strokeWidth=2;fillWeight=1;hachureGap=4;hachureAngle=45;sketch=0;fillColor=#d5e8d4;strokeColor=#82b366;jiggle=1;" parent="1" vertex="1">
          <mxGeometry x="100" y="190" width="40" height="20" as="geometry" />
        </mxCell>
        <mxCell id="32o6nJwJ4vGhFMCpq_lp-38" value="file2" style="rounded=1;whiteSpace=wrap;html=1;strokeWidth=2;fillWeight=1;hachureGap=4;hachureAngle=45;sketch=0;fillColor=#f8cecc;strokeColor=#b85450;" parent="1" vertex="1">
          <mxGeometry x="100" y="160" width="40" height="20" as="geometry" />
        </mxCell>
        <mxCell id="32o6nJwJ4vGhFMCpq_lp-39" value="file3" style="rounded=1;whiteSpace=wrap;html=1;strokeWidth=2;fillWeight=1;hachureGap=4;hachureAngle=45;sketch=0;fillColor=#fff2cc;strokeColor=#d6b656;" parent="1" vertex="1">
          <mxGeometry x="150" y="190" width="40" height="20" as="geometry" />
        </mxCell>
        <mxCell id="32o6nJwJ4vGhFMCpq_lp-40" value="file4" style="rounded=1;whiteSpace=wrap;html=1;strokeWidth=2;fillWeight=1;hachureGap=4;hachureAngle=45;sketch=0;fillColor=#e1d5e7;strokeColor=#9673a6;" parent="1" vertex="1">
          <mxGeometry x="150" y="160" width="40" height="20" as="geometry" />
        </mxCell>
        <mxCell id="32o6nJwJ4vGhFMCpq_lp-41" value="" style="rounded=1;whiteSpace=wrap;html=1;strokeWidth=2;fillWeight=1;hachureGap=4;hachureAngle=45;sketch=0;fillColor=#dae8fc;strokeColor=#6c8ebf;" parent="1" vertex="1">
          <mxGeometry x="100" y="130" width="40" height="20" as="geometry" />
        </mxCell>
        <mxCell id="32o6nJwJ4vGhFMCpq_lp-42" value="..." style="rounded=1;whiteSpace=wrap;html=1;strokeWidth=2;fillWeight=1;hachureGap=4;hachureAngle=45;sketch=0;fillColor=#f5f5f5;strokeColor=#666666;fontColor=#333333;" parent="1" vertex="1">
          <mxGeometry x="150" y="130" width="40" height="20" as="geometry" />
        </mxCell>
        <mxCell id="32o6nJwJ4vGhFMCpq_lp-45" value="client" style="text;html=1;align=center;verticalAlign=middle;resizable=0;points=[];autosize=1;strokeColor=none;fontSize=14;" parent="1" vertex="1">
          <mxGeometry x="120" y="100" width="50" height="20" as="geometry" />
        </mxCell>
        <mxCell id="32o6nJwJ4vGhFMCpq_lp-54" value="open&lt;br&gt;mkdir&lt;br&gt;readdir&lt;br&gt;..." style="text;html=1;align=center;verticalAlign=middle;resizable=0;points=[];autosize=1;strokeColor=none;fontSize=14;" parent="1" vertex="1">
          <mxGeometry x="230" y="110" width="60" height="70" as="geometry" />
        </mxCell>
        <mxCell id="32o6nJwJ4vGhFMCpq_lp-56" value="Metadata&lt;br&gt;Exchange" style="text;html=1;align=center;verticalAlign=middle;resizable=0;points=[];autosize=1;strokeColor=none;fontSize=14;" parent="1" vertex="1">
          <mxGeometry x="413.5" y="160" width="80" height="40" as="geometry" />
        </mxCell>
        <mxCell id="32o6nJwJ4vGhFMCpq_lp-65" style="edgeStyle=orthogonalEdgeStyle;curved=1;rounded=0;sketch=0;orthogonalLoop=1;jettySize=auto;html=1;entryX=0;entryY=0.5;entryDx=0;entryDy=0;dashed=1;fontSize=14;startArrow=none;startFill=0;strokeColor=#000000;" parent="1" source="32o6nJwJ4vGhFMCpq_lp-57" target="32o6nJwJ4vGhFMCpq_lp-36" edge="1">
          <mxGeometry relative="1" as="geometry" />
        </mxCell>
        <mxCell id="c0HW-vA4ggdlhmIqMv3k-1" style="edgeStyle=orthogonalEdgeStyle;rounded=0;orthogonalLoop=1;jettySize=auto;html=1;entryX=0.5;entryY=1;entryDx=0;entryDy=0;exitX=1;exitY=0;exitDx=0;exitDy=0;curved=1;sketch=0;" parent="1" source="32o6nJwJ4vGhFMCpq_lp-57" target="32o6nJwJ4vGhFMCpq_lp-97" edge="1">
          <mxGeometry relative="1" as="geometry" />
        </mxCell>
        <mxCell id="32o6nJwJ4vGhFMCpq_lp-57" value="Active&lt;br&gt;MDS" style="ellipse;whiteSpace=wrap;html=1;aspect=fixed;sketch=0;fillWeight=1;hachureGap=4;jiggle=1;fontSize=14;strokeWidth=2;fillColor=#EA6B66;strokeColor=#EA6B66;" parent="1" vertex="1">
          <mxGeometry x="460" y="200" width="60" height="60" as="geometry" />
        </mxCell>
        <mxCell id="32o6nJwJ4vGhFMCpq_lp-63" style="edgeStyle=orthogonalEdgeStyle;curved=1;rounded=0;sketch=0;orthogonalLoop=1;jettySize=auto;html=1;entryX=0;entryY=0.5;entryDx=0;entryDy=0;dashed=1;fontSize=14;startArrow=none;startFill=0;" parent="1" source="32o6nJwJ4vGhFMCpq_lp-58" target="32o6nJwJ4vGhFMCpq_lp-61" edge="1">
          <mxGeometry relative="1" as="geometry" />
        </mxCell>
        <mxCell id="32o6nJwJ4vGhFMCpq_lp-64" style="edgeStyle=orthogonalEdgeStyle;curved=1;rounded=0;sketch=0;orthogonalLoop=1;jettySize=auto;html=1;entryX=0;entryY=0;entryDx=0;entryDy=0;dashed=1;fontSize=14;startArrow=none;startFill=0;strokeColor=#000000;" parent="1" source="32o6nJwJ4vGhFMCpq_lp-58" target="32o6nJwJ4vGhFMCpq_lp-36" edge="1">
          <mxGeometry relative="1" as="geometry" />
        </mxCell>
        <mxCell id="32o6nJwJ4vGhFMCpq_lp-98" style="edgeStyle=orthogonalEdgeStyle;curved=1;rounded=0;sketch=0;orthogonalLoop=1;jettySize=auto;html=1;exitX=1;exitY=1;exitDx=0;exitDy=0;entryX=0.5;entryY=0;entryDx=0;entryDy=0;fontSize=14;startArrow=none;startFill=0;strokeColor=#000000;" parent="1" source="32o6nJwJ4vGhFMCpq_lp-58" target="32o6nJwJ4vGhFMCpq_lp-97" edge="1">
          <mxGeometry relative="1" as="geometry" />
        </mxCell>
        <mxCell id="32o6nJwJ4vGhFMCpq_lp-58" value="Active&lt;br&gt;MDS" style="ellipse;whiteSpace=wrap;html=1;aspect=fixed;sketch=0;fillWeight=1;hachureGap=4;jiggle=1;fontSize=14;strokeWidth=2;fillColor=#EA6B66;strokeColor=#EA6B66;" parent="1" vertex="1">
          <mxGeometry x="460" y="100" width="60" height="60" as="geometry" />
        </mxCell>
        <mxCell id="32o6nJwJ4vGhFMCpq_lp-59" value="write&lt;br&gt;read" style="text;html=1;align=center;verticalAlign=middle;resizable=0;points=[];autosize=1;strokeColor=none;fontSize=14;" parent="1" vertex="1">
          <mxGeometry x="155" y="235" width="50" height="40" as="geometry" />
        </mxCell>
        <mxCell id="32o6nJwJ4vGhFMCpq_lp-62" value="" style="group" parent="1" vertex="1" connectable="0">
          <mxGeometry x="550" y="100" width="60" height="60" as="geometry" />
        </mxCell>
        <mxCell id="32o6nJwJ4vGhFMCpq_lp-60" value="" style="ellipse;whiteSpace=wrap;html=1;aspect=fixed;sketch=1;fillWeight=1;hachureGap=4;jiggle=1;fontSize=14;strokeWidth=2;fillColor=#66B2FF;strokeColor=#66B2FF;" parent="32o6nJwJ4vGhFMCpq_lp-62" vertex="1">
          <mxGeometry width="60" height="60" as="geometry" />
        </mxCell>
        <mxCell id="32o6nJwJ4vGhFMCpq_lp-61" value="Standby&lt;br&gt;Replay" style="ellipse;whiteSpace=wrap;html=1;aspect=fixed;sketch=0;fillWeight=1;hachureGap=4;jiggle=1;fontSize=14;strokeWidth=2;fillColor=#66B2FF;strokeColor=none;" parent="32o6nJwJ4vGhFMCpq_lp-62" vertex="1">
          <mxGeometry width="60" height="60" as="geometry" />
        </mxCell>
        <mxCell id="32o6nJwJ4vGhFMCpq_lp-91" value="" style="group" parent="1" vertex="1" connectable="0">
          <mxGeometry x="300" y="125" width="120" height="110" as="geometry" />
        </mxCell>
        <mxCell id="32o6nJwJ4vGhFMCpq_lp-73" value="" style="shape=waypoint;sketch=0;fillStyle=solid;size=6;pointerEvents=1;points=[];fillColor=none;resizable=0;rotatable=0;perimeter=centerPerimeter;snapToPoint=1;fillWeight=1;hachureGap=4;jiggle=1;fontSize=14;strokeWidth=2;" parent="32o6nJwJ4vGhFMCpq_lp-91" vertex="1">
          <mxGeometry x="40" y="30" width="40" height="40" as="geometry" />
        </mxCell>
        <mxCell id="32o6nJwJ4vGhFMCpq_lp-79" style="edgeStyle=orthogonalEdgeStyle;curved=1;rounded=0;sketch=1;orthogonalLoop=1;jettySize=auto;html=1;fontSize=14;startArrow=none;startFill=0;strokeColor=#000000;" parent="32o6nJwJ4vGhFMCpq_lp-91" source="32o6nJwJ4vGhFMCpq_lp-75" target="32o6nJwJ4vGhFMCpq_lp-73" edge="1">
          <mxGeometry relative="1" as="geometry" />
        </mxCell>
        <mxCell id="32o6nJwJ4vGhFMCpq_lp-75" value="" style="ellipse;whiteSpace=wrap;html=1;aspect=fixed;sketch=1;fillWeight=1;hachureGap=4;jiggle=1;fontSize=14;strokeColor=#000000;strokeWidth=2;fillColor=#FFFFFF;" parent="32o6nJwJ4vGhFMCpq_lp-91" vertex="1">
          <mxGeometry x="55" width="10" height="10" as="geometry" />
        </mxCell>
        <mxCell id="32o6nJwJ4vGhFMCpq_lp-80" value="" style="ellipse;whiteSpace=wrap;html=1;aspect=fixed;sketch=1;fillWeight=1;hachureGap=4;jiggle=1;fontSize=14;strokeColor=#000000;strokeWidth=2;fillColor=#FFFFFF;" parent="32o6nJwJ4vGhFMCpq_lp-91" vertex="1">
          <mxGeometry x="95" y="45" width="10" height="10" as="geometry" />
        </mxCell>
        <mxCell id="32o6nJwJ4vGhFMCpq_lp-81" style="edgeStyle=orthogonalEdgeStyle;curved=1;rounded=0;sketch=1;orthogonalLoop=1;jettySize=auto;html=1;entryX=0.5;entryY=0;entryDx=0;entryDy=0;fontSize=14;startArrow=none;startFill=0;strokeColor=#000000;" parent="32o6nJwJ4vGhFMCpq_lp-91" source="32o6nJwJ4vGhFMCpq_lp-75" target="32o6nJwJ4vGhFMCpq_lp-80" edge="1">
          <mxGeometry relative="1" as="geometry" />
        </mxCell>
        <mxCell id="32o6nJwJ4vGhFMCpq_lp-82" value="" style="shape=waypoint;sketch=0;fillStyle=solid;size=6;pointerEvents=1;points=[];fillColor=none;resizable=0;rotatable=0;perimeter=centerPerimeter;snapToPoint=1;fillWeight=1;hachureGap=4;jiggle=1;fontSize=14;strokeWidth=2;" parent="32o6nJwJ4vGhFMCpq_lp-91" vertex="1">
          <mxGeometry x="40" y="70" width="40" height="40" as="geometry" />
        </mxCell>
        <mxCell id="32o6nJwJ4vGhFMCpq_lp-83" style="edgeStyle=orthogonalEdgeStyle;curved=1;rounded=0;sketch=1;orthogonalLoop=1;jettySize=auto;html=1;fontSize=14;startArrow=none;startFill=0;strokeColor=#000000;" parent="32o6nJwJ4vGhFMCpq_lp-91" source="32o6nJwJ4vGhFMCpq_lp-80" target="32o6nJwJ4vGhFMCpq_lp-82" edge="1">
          <mxGeometry relative="1" as="geometry" />
        </mxCell>
        <mxCell id="32o6nJwJ4vGhFMCpq_lp-84" value="" style="shape=waypoint;sketch=0;fillStyle=solid;size=6;pointerEvents=1;points=[];fillColor=none;resizable=0;rotatable=0;perimeter=centerPerimeter;snapToPoint=1;fillWeight=1;hachureGap=4;jiggle=1;fontSize=14;strokeWidth=2;" parent="32o6nJwJ4vGhFMCpq_lp-91" vertex="1">
          <mxGeometry x="80" y="70" width="40" height="40" as="geometry" />
        </mxCell>
        <mxCell id="32o6nJwJ4vGhFMCpq_lp-86" style="edgeStyle=orthogonalEdgeStyle;curved=1;rounded=0;sketch=1;orthogonalLoop=1;jettySize=auto;html=1;fontSize=14;startArrow=none;startFill=0;strokeColor=#000000;" parent="32o6nJwJ4vGhFMCpq_lp-91" source="32o6nJwJ4vGhFMCpq_lp-80" target="32o6nJwJ4vGhFMCpq_lp-84" edge="1">
          <mxGeometry relative="1" as="geometry" />
        </mxCell>
        <mxCell id="32o6nJwJ4vGhFMCpq_lp-87" value="" style="ellipse;whiteSpace=wrap;html=1;aspect=fixed;sketch=1;fillWeight=1;hachureGap=4;jiggle=1;fontSize=14;strokeColor=#000000;strokeWidth=2;fillColor=#FFFFFF;" parent="32o6nJwJ4vGhFMCpq_lp-91" vertex="1">
          <mxGeometry x="15" y="45" width="10" height="10" as="geometry" />
        </mxCell>
        <mxCell id="32o6nJwJ4vGhFMCpq_lp-88" style="edgeStyle=orthogonalEdgeStyle;curved=1;rounded=0;sketch=1;orthogonalLoop=1;jettySize=auto;html=1;entryX=0.5;entryY=0;entryDx=0;entryDy=0;fontSize=14;startArrow=none;startFill=0;strokeColor=#000000;" parent="32o6nJwJ4vGhFMCpq_lp-91" source="32o6nJwJ4vGhFMCpq_lp-75" target="32o6nJwJ4vGhFMCpq_lp-87" edge="1">
          <mxGeometry relative="1" as="geometry" />
        </mxCell>
        <mxCell id="32o6nJwJ4vGhFMCpq_lp-89" value="" style="shape=waypoint;sketch=0;fillStyle=solid;size=6;pointerEvents=1;points=[];fillColor=none;resizable=0;rotatable=0;perimeter=centerPerimeter;snapToPoint=1;fillWeight=1;hachureGap=4;jiggle=1;fontSize=14;strokeWidth=2;" parent="32o6nJwJ4vGhFMCpq_lp-91" vertex="1">
          <mxGeometry y="70" width="40" height="40" as="geometry" />
        </mxCell>
        <mxCell id="32o6nJwJ4vGhFMCpq_lp-90" style="edgeStyle=orthogonalEdgeStyle;curved=1;rounded=0;sketch=1;orthogonalLoop=1;jettySize=auto;html=1;fontSize=14;startArrow=none;startFill=0;strokeColor=#000000;" parent="32o6nJwJ4vGhFMCpq_lp-91" source="32o6nJwJ4vGhFMCpq_lp-87" target="32o6nJwJ4vGhFMCpq_lp-89" edge="1">
          <mxGeometry relative="1" as="geometry" />
        </mxCell>
        <mxCell id="32o6nJwJ4vGhFMCpq_lp-92" value="" style="rounded=1;whiteSpace=wrap;html=1;strokeWidth=2;fillWeight=1;hachureGap=4;hachureAngle=45;sketch=0;fillColor=#d5e8d4;strokeColor=#82b366;jiggle=1;" parent="1" vertex="1">
          <mxGeometry x="460" y="385" width="40" height="10" as="geometry" />
        </mxCell>
        <mxCell id="32o6nJwJ4vGhFMCpq_lp-93" value="" style="rounded=1;whiteSpace=wrap;html=1;strokeWidth=2;fillWeight=1;hachureGap=4;hachureAngle=45;sketch=0;fillColor=#f8cecc;strokeColor=#b85450;" parent="1" vertex="1">
          <mxGeometry x="460" y="400" width="40" height="10" as="geometry" />
        </mxCell>
        <mxCell id="32o6nJwJ4vGhFMCpq_lp-94" value="" style="rounded=1;whiteSpace=wrap;html=1;strokeWidth=2;fillWeight=1;hachureGap=4;hachureAngle=45;sketch=0;fillColor=#fff2cc;strokeColor=#d6b656;" parent="1" vertex="1">
          <mxGeometry x="560" y="345" width="40" height="10" as="geometry" />
        </mxCell>
        <mxCell id="32o6nJwJ4vGhFMCpq_lp-95" value="" style="rounded=1;whiteSpace=wrap;html=1;strokeWidth=2;fillWeight=1;hachureGap=4;hachureAngle=45;sketch=0;fillColor=#e1d5e7;strokeColor=#9673a6;" parent="1" vertex="1">
          <mxGeometry x="510" y="395" width="40" height="10" as="geometry" />
        </mxCell>
        <mxCell id="32o6nJwJ4vGhFMCpq_lp-97" value="journal" style="rounded=1;whiteSpace=wrap;html=1;sketch=0;fillWeight=1;hachureGap=4;jiggle=1;fontSize=14;strokeWidth=2;" parent="1" vertex="1">
          <mxGeometry x="500" y="170" width="50" height="20" as="geometry" />
        </mxCell>
      </root>
    </mxGraphModel>
  </diagram>
  <diagram id="Fr0L-yS8TPaaORnQ2age" name="meta">
    <mxGraphModel dx="1185" dy="743" grid="1" gridSize="10" guides="1" tooltips="1" connect="1" arrows="1" fold="1" page="1" pageScale="1" pageWidth="827" pageHeight="1169" math="0" shadow="0">
      <root>
        <mxCell id="C5J7aSq_G2JUmF--GPMT-0" />
        <mxCell id="C5J7aSq_G2JUmF--GPMT-1" parent="C5J7aSq_G2JUmF--GPMT-0" />
        <mxCell id="Sqe7N56VStj4oBjctmM2-108" value="" style="rounded=1;whiteSpace=wrap;html=1;strokeWidth=2;fillWeight=1;hachureGap=4;hachureAngle=45;sketch=0;dashed=1;" vertex="1" parent="C5J7aSq_G2JUmF--GPMT-1">
          <mxGeometry x="50" y="820" width="350" height="60" as="geometry" />
        </mxCell>
        <mxCell id="YFz_euu3_MOi2rQfzj05-38" style="edgeStyle=orthogonalEdgeStyle;curved=1;rounded=0;sketch=0;orthogonalLoop=1;jettySize=auto;html=1;entryX=0.021;entryY=0.853;entryDx=0;entryDy=0;entryPerimeter=0;" parent="C5J7aSq_G2JUmF--GPMT-1" source="YFz_euu3_MOi2rQfzj05-27" target="YFz_euu3_MOi2rQfzj05-35" edge="1">
          <mxGeometry relative="1" as="geometry" />
        </mxCell>
        <mxCell id="YFz_euu3_MOi2rQfzj05-27" value="" style="rounded=1;whiteSpace=wrap;html=1;sketch=0;fillWeight=1;hachureGap=4;strokeWidth=2;dashed=1;fillColor=#f5f5f5;strokeColor=#666666;fontColor=#333333;" parent="C5J7aSq_G2JUmF--GPMT-1" vertex="1">
          <mxGeometry x="190" y="670" width="410" height="60" as="geometry" />
        </mxCell>
        <mxCell id="YFz_euu3_MOi2rQfzj05-37" style="edgeStyle=orthogonalEdgeStyle;curved=1;rounded=0;sketch=0;orthogonalLoop=1;jettySize=auto;html=1;entryX=-0.026;entryY=0.472;entryDx=0;entryDy=0;entryPerimeter=0;" parent="C5J7aSq_G2JUmF--GPMT-1" source="YFz_euu3_MOi2rQfzj05-26" edge="1">
          <mxGeometry relative="1" as="geometry">
            <mxPoint x="628.44" y="585.1199999999999" as="targetPoint" />
          </mxGeometry>
        </mxCell>
        <mxCell id="YFz_euu3_MOi2rQfzj05-26" value="" style="rounded=1;whiteSpace=wrap;html=1;sketch=0;fillWeight=1;hachureGap=4;strokeWidth=2;dashed=1;fillColor=#f5f5f5;strokeColor=#666666;fontColor=#333333;" parent="C5J7aSq_G2JUmF--GPMT-1" vertex="1">
          <mxGeometry x="240" y="556" width="360" height="60" as="geometry" />
        </mxCell>
        <mxCell id="0TCNY8-GAST-M18cTMAJ-25" value="" style="rounded=1;whiteSpace=wrap;html=1;strokeWidth=2;fillWeight=1;hachureGap=4;hachureAngle=45;sketch=0;dashed=1;fillColor=#f8cecc;strokeColor=#b85450;" parent="C5J7aSq_G2JUmF--GPMT-1" vertex="1">
          <mxGeometry x="380" y="430" width="250" height="40" as="geometry" />
        </mxCell>
        <mxCell id="0TCNY8-GAST-M18cTMAJ-23" value="" style="rounded=1;whiteSpace=wrap;html=1;strokeWidth=2;fillWeight=1;hachureGap=4;hachureAngle=45;sketch=0;dashed=1;fillColor=#f5f5f5;fontColor=#333333;strokeColor=#666666;" parent="C5J7aSq_G2JUmF--GPMT-1" vertex="1">
          <mxGeometry x="380" y="180" width="250" height="220" as="geometry" />
        </mxCell>
        <mxCell id="OVfps-vngCJTd8kqbnHQ-15" value="" style="rounded=1;whiteSpace=wrap;html=1;sketch=0;fillWeight=1;hachureGap=4;strokeWidth=2;shadow=0;" parent="C5J7aSq_G2JUmF--GPMT-1" vertex="1">
          <mxGeometry x="380" y="32" width="230" height="106" as="geometry" />
        </mxCell>
        <mxCell id="8oXcSAYbPXG-dODkzd7s-0" value="" style="rounded=1;whiteSpace=wrap;html=1;strokeWidth=2;fillWeight=1;hachureGap=4;hachureAngle=45;sketch=0;fillColor=#d5e8d4;strokeColor=#82b366;" parent="C5J7aSq_G2JUmF--GPMT-1" vertex="1">
          <mxGeometry x="140" y="30" width="120" height="100" as="geometry" />
        </mxCell>
        <mxCell id="8oXcSAYbPXG-dODkzd7s-4" value="" style="rounded=1;whiteSpace=wrap;html=1;strokeWidth=2;fillWeight=1;hachureGap=4;hachureAngle=45;sketch=0;" parent="C5J7aSq_G2JUmF--GPMT-1" vertex="1">
          <mxGeometry x="150" y="50" width="100" height="70" as="geometry" />
        </mxCell>
        <mxCell id="8oXcSAYbPXG-dODkzd7s-1" value="CInode" style="text;html=1;align=center;verticalAlign=middle;resizable=0;points=[];autosize=1;strokeColor=none;fillColor=none;" parent="C5J7aSq_G2JUmF--GPMT-1" vertex="1">
          <mxGeometry x="175" y="30" width="50" height="20" as="geometry" />
        </mxCell>
        <mxCell id="8oXcSAYbPXG-dODkzd7s-9" style="edgeStyle=orthogonalEdgeStyle;rounded=0;orthogonalLoop=1;jettySize=auto;html=1;entryX=0.489;entryY=-0.043;entryDx=0;entryDy=0;entryPerimeter=0;sketch=0;curved=1;" parent="C5J7aSq_G2JUmF--GPMT-1" source="8oXcSAYbPXG-dODkzd7s-2" target="8oXcSAYbPXG-dODkzd7s-8" edge="1">
          <mxGeometry relative="1" as="geometry" />
        </mxCell>
        <mxCell id="8oXcSAYbPXG-dODkzd7s-2" value="frag" style="rounded=1;whiteSpace=wrap;html=1;sketch=0;fillColor=#dae8fc;strokeColor=#6c8ebf;fillWeight=1;hachureGap=4;strokeWidth=2;" parent="C5J7aSq_G2JUmF--GPMT-1" vertex="1">
          <mxGeometry x="160" y="70" width="40" height="40" as="geometry" />
        </mxCell>
        <mxCell id="8oXcSAYbPXG-dODkzd7s-12" style="edgeStyle=orthogonalEdgeStyle;curved=1;rounded=0;sketch=0;orthogonalLoop=1;jettySize=auto;html=1;exitX=0.5;exitY=1;exitDx=0;exitDy=0;" parent="C5J7aSq_G2JUmF--GPMT-1" source="8oXcSAYbPXG-dODkzd7s-3" target="8oXcSAYbPXG-dODkzd7s-11" edge="1">
          <mxGeometry relative="1" as="geometry" />
        </mxCell>
        <mxCell id="8oXcSAYbPXG-dODkzd7s-3" value="..." style="rounded=1;whiteSpace=wrap;html=1;sketch=0;fillColor=#dae8fc;strokeColor=#6c8ebf;fillWeight=1;hachureGap=4;strokeWidth=2;" parent="C5J7aSq_G2JUmF--GPMT-1" vertex="1">
          <mxGeometry x="200" y="70" width="40" height="40" as="geometry" />
        </mxCell>
        <mxCell id="8oXcSAYbPXG-dODkzd7s-6" value="dirfrags" style="text;html=1;align=center;verticalAlign=middle;resizable=0;points=[];autosize=1;strokeColor=none;fillColor=none;" parent="C5J7aSq_G2JUmF--GPMT-1" vertex="1">
          <mxGeometry x="170" y="50" width="60" height="20" as="geometry" />
        </mxCell>
        <mxCell id="8oXcSAYbPXG-dODkzd7s-10" value="" style="rounded=1;whiteSpace=wrap;html=1;strokeWidth=2;fillWeight=1;hachureGap=4;hachureAngle=45;sketch=0;fillColor=#dae8fc;strokeColor=#6c8ebf;" parent="C5J7aSq_G2JUmF--GPMT-1" vertex="1">
          <mxGeometry x="280" y="160" width="60" height="100" as="geometry" />
        </mxCell>
        <mxCell id="8oXcSAYbPXG-dODkzd7s-11" value="CDir" style="text;html=1;align=center;verticalAlign=middle;resizable=0;points=[];autosize=1;strokeColor=none;fillColor=none;" parent="C5J7aSq_G2JUmF--GPMT-1" vertex="1">
          <mxGeometry x="290" y="160" width="40" height="20" as="geometry" />
        </mxCell>
        <mxCell id="8oXcSAYbPXG-dODkzd7s-13" value="" style="group" parent="C5J7aSq_G2JUmF--GPMT-1" vertex="1" connectable="0">
          <mxGeometry x="140" y="160" width="120" height="100" as="geometry" />
        </mxCell>
        <mxCell id="8oXcSAYbPXG-dODkzd7s-7" value="" style="rounded=1;whiteSpace=wrap;html=1;strokeWidth=2;fillWeight=1;hachureGap=4;hachureAngle=45;sketch=0;fillColor=#dae8fc;strokeColor=#6c8ebf;" parent="8oXcSAYbPXG-dODkzd7s-13" vertex="1">
          <mxGeometry width="120" height="100" as="geometry" />
        </mxCell>
        <mxCell id="8oXcSAYbPXG-dODkzd7s-8" value="CDir" style="text;html=1;align=center;verticalAlign=middle;resizable=0;points=[];autosize=1;strokeColor=none;fillColor=none;" parent="8oXcSAYbPXG-dODkzd7s-13" vertex="1">
          <mxGeometry x="40" width="40" height="20" as="geometry" />
        </mxCell>
        <mxCell id="8oXcSAYbPXG-dODkzd7s-14" value="" style="rounded=1;whiteSpace=wrap;html=1;strokeWidth=2;fillWeight=1;hachureGap=4;hachureAngle=45;sketch=0;" parent="8oXcSAYbPXG-dODkzd7s-13" vertex="1">
          <mxGeometry x="10" y="20" width="100" height="70" as="geometry" />
        </mxCell>
        <mxCell id="8oXcSAYbPXG-dODkzd7s-15" value="dentry" style="rounded=1;whiteSpace=wrap;html=1;sketch=0;fillColor=#fff2cc;strokeColor=#d6b656;fillWeight=1;hachureGap=4;strokeWidth=2;" parent="8oXcSAYbPXG-dODkzd7s-13" vertex="1">
          <mxGeometry x="20" y="40" width="40" height="40" as="geometry" />
        </mxCell>
        <mxCell id="8oXcSAYbPXG-dODkzd7s-16" value="..." style="rounded=1;whiteSpace=wrap;html=1;sketch=0;fillColor=#fff2cc;strokeColor=#d6b656;fillWeight=1;hachureGap=4;strokeWidth=2;" parent="8oXcSAYbPXG-dODkzd7s-13" vertex="1">
          <mxGeometry x="60" y="40" width="40" height="40" as="geometry" />
        </mxCell>
        <mxCell id="8oXcSAYbPXG-dODkzd7s-17" value="Items" style="text;html=1;align=center;verticalAlign=middle;resizable=0;points=[];autosize=1;strokeColor=none;fillColor=none;" parent="8oXcSAYbPXG-dODkzd7s-13" vertex="1">
          <mxGeometry x="40" y="20" width="40" height="20" as="geometry" />
        </mxCell>
        <mxCell id="SMqcR2pKVkHs9EOjkk3c-5" style="edgeStyle=orthogonalEdgeStyle;curved=1;rounded=0;sketch=0;orthogonalLoop=1;jettySize=auto;html=1;entryX=0;entryY=0.75;entryDx=0;entryDy=0;exitX=0;exitY=0.25;exitDx=0;exitDy=0;" parent="C5J7aSq_G2JUmF--GPMT-1" source="8oXcSAYbPXG-dODkzd7s-18" target="8oXcSAYbPXG-dODkzd7s-7" edge="1">
          <mxGeometry relative="1" as="geometry" />
        </mxCell>
        <mxCell id="SMqcR2pKVkHs9EOjkk3c-8" value="dir" style="edgeLabel;html=1;align=center;verticalAlign=middle;resizable=0;points=[];" parent="SMqcR2pKVkHs9EOjkk3c-5" vertex="1" connectable="0">
          <mxGeometry x="0.1532" relative="1" as="geometry">
            <mxPoint y="6" as="offset" />
          </mxGeometry>
        </mxCell>
        <mxCell id="8oXcSAYbPXG-dODkzd7s-18" value="" style="rounded=1;whiteSpace=wrap;html=1;strokeWidth=2;fillWeight=1;hachureGap=4;hachureAngle=45;sketch=0;fillColor=#fff2cc;strokeColor=#d6b656;" parent="C5J7aSq_G2JUmF--GPMT-1" vertex="1">
          <mxGeometry x="140" y="290" width="120" height="80" as="geometry" />
        </mxCell>
        <mxCell id="8oXcSAYbPXG-dODkzd7s-19" style="edgeStyle=orthogonalEdgeStyle;curved=1;rounded=0;sketch=0;orthogonalLoop=1;jettySize=auto;html=1;entryX=0.5;entryY=0;entryDx=0;entryDy=0;" parent="C5J7aSq_G2JUmF--GPMT-1" source="8oXcSAYbPXG-dODkzd7s-15" target="8oXcSAYbPXG-dODkzd7s-18" edge="1">
          <mxGeometry relative="1" as="geometry" />
        </mxCell>
        <mxCell id="8oXcSAYbPXG-dODkzd7s-20" value="CDentry" style="text;html=1;align=center;verticalAlign=middle;resizable=0;points=[];autosize=1;strokeColor=none;fillColor=none;" parent="C5J7aSq_G2JUmF--GPMT-1" vertex="1">
          <mxGeometry x="170" y="290" width="60" height="20" as="geometry" />
        </mxCell>
        <mxCell id="8oXcSAYbPXG-dODkzd7s-21" value="" style="rounded=1;whiteSpace=wrap;html=1;strokeWidth=2;fillWeight=1;hachureGap=4;hachureAngle=45;sketch=0;fillColor=#fff2cc;strokeColor=#d6b656;" parent="C5J7aSq_G2JUmF--GPMT-1" vertex="1">
          <mxGeometry x="280" y="290" width="60" height="80" as="geometry" />
        </mxCell>
        <mxCell id="8oXcSAYbPXG-dODkzd7s-22" value="CDentry" style="text;html=1;align=center;verticalAlign=middle;resizable=0;points=[];autosize=1;strokeColor=none;fillColor=none;" parent="C5J7aSq_G2JUmF--GPMT-1" vertex="1">
          <mxGeometry x="280" y="290" width="60" height="20" as="geometry" />
        </mxCell>
        <mxCell id="8oXcSAYbPXG-dODkzd7s-23" style="edgeStyle=orthogonalEdgeStyle;curved=1;rounded=0;sketch=0;orthogonalLoop=1;jettySize=auto;html=1;entryX=0.5;entryY=0;entryDx=0;entryDy=0;entryPerimeter=0;exitX=0.5;exitY=1;exitDx=0;exitDy=0;" parent="C5J7aSq_G2JUmF--GPMT-1" source="8oXcSAYbPXG-dODkzd7s-16" target="8oXcSAYbPXG-dODkzd7s-22" edge="1">
          <mxGeometry relative="1" as="geometry" />
        </mxCell>
        <mxCell id="8oXcSAYbPXG-dODkzd7s-27" style="edgeStyle=orthogonalEdgeStyle;curved=1;rounded=0;sketch=0;orthogonalLoop=1;jettySize=auto;html=1;entryX=0.5;entryY=0;entryDx=0;entryDy=0;dashed=1;" parent="C5J7aSq_G2JUmF--GPMT-1" source="8oXcSAYbPXG-dODkzd7s-24" target="8oXcSAYbPXG-dODkzd7s-25" edge="1">
          <mxGeometry relative="1" as="geometry" />
        </mxCell>
        <mxCell id="SMqcR2pKVkHs9EOjkk3c-1" style="edgeStyle=orthogonalEdgeStyle;curved=1;rounded=0;sketch=0;orthogonalLoop=1;jettySize=auto;html=1;entryX=0.5;entryY=0;entryDx=0;entryDy=0;dashed=1;exitX=0.5;exitY=1;exitDx=0;exitDy=0;" parent="C5J7aSq_G2JUmF--GPMT-1" source="8oXcSAYbPXG-dODkzd7s-24" target="SMqcR2pKVkHs9EOjkk3c-0" edge="1">
          <mxGeometry relative="1" as="geometry" />
        </mxCell>
        <mxCell id="SMqcR2pKVkHs9EOjkk3c-3" style="edgeStyle=orthogonalEdgeStyle;curved=1;rounded=0;sketch=0;orthogonalLoop=1;jettySize=auto;html=1;entryX=0.5;entryY=0;entryDx=0;entryDy=0;dashed=1;exitX=0.5;exitY=1;exitDx=0;exitDy=0;" parent="C5J7aSq_G2JUmF--GPMT-1" source="8oXcSAYbPXG-dODkzd7s-24" target="SMqcR2pKVkHs9EOjkk3c-2" edge="1">
          <mxGeometry relative="1" as="geometry" />
        </mxCell>
        <mxCell id="8oXcSAYbPXG-dODkzd7s-24" value="linkage_t" style="rounded=1;whiteSpace=wrap;html=1;sketch=0;fillColor=#d5e8d4;strokeColor=#82b366;fillWeight=1;hachureGap=4;strokeWidth=2;" parent="C5J7aSq_G2JUmF--GPMT-1" vertex="1">
          <mxGeometry x="150" y="320" width="100" height="40" as="geometry" />
        </mxCell>
        <mxCell id="SMqcR2pKVkHs9EOjkk3c-4" style="edgeStyle=orthogonalEdgeStyle;curved=1;rounded=0;sketch=0;orthogonalLoop=1;jettySize=auto;html=1;entryX=0;entryY=0.75;entryDx=0;entryDy=0;exitX=0;exitY=0.5;exitDx=0;exitDy=0;" parent="C5J7aSq_G2JUmF--GPMT-1" source="8oXcSAYbPXG-dODkzd7s-25" target="8oXcSAYbPXG-dODkzd7s-18" edge="1">
          <mxGeometry relative="1" as="geometry" />
        </mxCell>
        <mxCell id="SMqcR2pKVkHs9EOjkk3c-7" value="parent" style="edgeLabel;html=1;align=center;verticalAlign=middle;resizable=0;points=[];" parent="SMqcR2pKVkHs9EOjkk3c-4" vertex="1" connectable="0">
          <mxGeometry x="0.1481" y="2" relative="1" as="geometry">
            <mxPoint y="13" as="offset" />
          </mxGeometry>
        </mxCell>
        <mxCell id="8oXcSAYbPXG-dODkzd7s-25" value="local inode" style="rounded=1;whiteSpace=wrap;html=1;strokeWidth=2;fillWeight=1;hachureGap=4;hachureAngle=45;sketch=0;fillColor=#d5e8d4;strokeColor=#82b366;" parent="C5J7aSq_G2JUmF--GPMT-1" vertex="1">
          <mxGeometry x="140" y="400" width="60" height="40" as="geometry" />
        </mxCell>
        <mxCell id="SMqcR2pKVkHs9EOjkk3c-0" value="remote inode" style="rounded=1;whiteSpace=wrap;html=1;strokeWidth=2;fillWeight=1;hachureGap=4;hachureAngle=45;sketch=0;fillColor=#d5e8d4;strokeColor=#82b366;" parent="C5J7aSq_G2JUmF--GPMT-1" vertex="1">
          <mxGeometry x="210" y="400" width="60" height="40" as="geometry" />
        </mxCell>
        <mxCell id="SMqcR2pKVkHs9EOjkk3c-2" value="null" style="rounded=1;whiteSpace=wrap;html=1;strokeWidth=2;fillWeight=1;hachureGap=4;hachureAngle=45;sketch=0;fillColor=#e1d5e7;strokeColor=#9673a6;" parent="C5J7aSq_G2JUmF--GPMT-1" vertex="1">
          <mxGeometry x="280" y="400" width="60" height="40" as="geometry" />
        </mxCell>
        <mxCell id="SMqcR2pKVkHs9EOjkk3c-6" style="edgeStyle=orthogonalEdgeStyle;curved=1;rounded=0;sketch=0;orthogonalLoop=1;jettySize=auto;html=1;entryX=0;entryY=0.75;entryDx=0;entryDy=0;exitX=0;exitY=0.25;exitDx=0;exitDy=0;" parent="C5J7aSq_G2JUmF--GPMT-1" source="8oXcSAYbPXG-dODkzd7s-7" target="8oXcSAYbPXG-dODkzd7s-0" edge="1">
          <mxGeometry relative="1" as="geometry" />
        </mxCell>
        <mxCell id="SMqcR2pKVkHs9EOjkk3c-9" value="inode" style="edgeLabel;html=1;align=center;verticalAlign=middle;resizable=0;points=[];" parent="SMqcR2pKVkHs9EOjkk3c-6" vertex="1" connectable="0">
          <mxGeometry x="0.1458" relative="1" as="geometry">
            <mxPoint y="14" as="offset" />
          </mxGeometry>
        </mxCell>
        <mxCell id="OVfps-vngCJTd8kqbnHQ-0" value="bits" style="rounded=1;whiteSpace=wrap;html=1;sketch=0;fillColor=#fff2cc;strokeColor=#d6b656;fillWeight=1;hachureGap=4;strokeWidth=2;" parent="C5J7aSq_G2JUmF--GPMT-1" vertex="1">
          <mxGeometry x="439.76" y="88" width="40" height="40" as="geometry" />
        </mxCell>
        <mxCell id="OVfps-vngCJTd8kqbnHQ-1" value="value" style="rounded=1;whiteSpace=wrap;html=1;sketch=0;fillWeight=1;hachureGap=4;strokeWidth=2;fillColor=#fff2cc;strokeColor=#d6b656;" parent="C5J7aSq_G2JUmF--GPMT-1" vertex="1">
          <mxGeometry x="479.76" y="88" width="120" height="40" as="geometry" />
        </mxCell>
        <mxCell id="OVfps-vngCJTd8kqbnHQ-3" value="" style="endArrow=classic;html=1;rounded=0;sketch=0;curved=1;entryX=0;entryY=0;entryDx=0;entryDy=0;" parent="C5J7aSq_G2JUmF--GPMT-1" target="OVfps-vngCJTd8kqbnHQ-0" edge="1">
          <mxGeometry width="50" height="50" relative="1" as="geometry">
            <mxPoint x="440" y="38" as="sourcePoint" />
            <mxPoint x="469.76" y="158" as="targetPoint" />
          </mxGeometry>
        </mxCell>
        <mxCell id="OVfps-vngCJTd8kqbnHQ-4" value="" style="endArrow=classic;html=1;rounded=0;sketch=0;curved=1;entryX=0;entryY=0;entryDx=0;entryDy=0;" parent="C5J7aSq_G2JUmF--GPMT-1" edge="1">
          <mxGeometry width="50" height="50" relative="1" as="geometry">
            <mxPoint x="480" y="58" as="sourcePoint" />
            <mxPoint x="479.76" y="88" as="targetPoint" />
          </mxGeometry>
        </mxCell>
        <mxCell id="OVfps-vngCJTd8kqbnHQ-5" value="" style="endArrow=classic;html=1;rounded=0;sketch=0;curved=1;entryX=0;entryY=0;entryDx=0;entryDy=0;" parent="C5J7aSq_G2JUmF--GPMT-1" edge="1">
          <mxGeometry width="50" height="50" relative="1" as="geometry">
            <mxPoint x="600" y="38" as="sourcePoint" />
            <mxPoint x="599.76" y="88" as="targetPoint" />
          </mxGeometry>
        </mxCell>
        <mxCell id="OVfps-vngCJTd8kqbnHQ-6" value="" style="endArrow=classic;startArrow=classic;html=1;rounded=0;sketch=0;curved=1;" parent="C5J7aSq_G2JUmF--GPMT-1" edge="1">
          <mxGeometry width="50" height="50" relative="1" as="geometry">
            <mxPoint x="440" y="68" as="sourcePoint" />
            <mxPoint x="480" y="68" as="targetPoint" />
          </mxGeometry>
        </mxCell>
        <mxCell id="OVfps-vngCJTd8kqbnHQ-7" value="8" style="edgeLabel;html=1;align=center;verticalAlign=middle;resizable=0;points=[];" parent="OVfps-vngCJTd8kqbnHQ-6" vertex="1" connectable="0">
          <mxGeometry x="-0.2428" y="-1" relative="1" as="geometry">
            <mxPoint x="5" as="offset" />
          </mxGeometry>
        </mxCell>
        <mxCell id="OVfps-vngCJTd8kqbnHQ-8" value="" style="endArrow=classic;startArrow=classic;html=1;rounded=0;sketch=0;curved=1;" parent="C5J7aSq_G2JUmF--GPMT-1" edge="1">
          <mxGeometry width="50" height="50" relative="1" as="geometry">
            <mxPoint x="479.76" y="68" as="sourcePoint" />
            <mxPoint x="599.76" y="68" as="targetPoint" />
          </mxGeometry>
        </mxCell>
        <mxCell id="OVfps-vngCJTd8kqbnHQ-9" value="24" style="edgeLabel;html=1;align=center;verticalAlign=middle;resizable=0;points=[];" parent="OVfps-vngCJTd8kqbnHQ-8" vertex="1" connectable="0">
          <mxGeometry x="-0.2428" y="-1" relative="1" as="geometry">
            <mxPoint x="15" as="offset" />
          </mxGeometry>
        </mxCell>
        <mxCell id="OVfps-vngCJTd8kqbnHQ-11" value="" style="endArrow=classic;startArrow=classic;html=1;rounded=0;sketch=0;curved=1;" parent="C5J7aSq_G2JUmF--GPMT-1" edge="1">
          <mxGeometry width="50" height="50" relative="1" as="geometry">
            <mxPoint x="439.76" y="48" as="sourcePoint" />
            <mxPoint x="599.76" y="48" as="targetPoint" />
            <Array as="points">
              <mxPoint x="519.76" y="48" />
            </Array>
          </mxGeometry>
        </mxCell>
        <mxCell id="OVfps-vngCJTd8kqbnHQ-14" value="_enc" style="edgeLabel;html=1;align=center;verticalAlign=middle;resizable=0;points=[];" parent="OVfps-vngCJTd8kqbnHQ-11" vertex="1" connectable="0">
          <mxGeometry x="-0.0696" y="2" relative="1" as="geometry">
            <mxPoint as="offset" />
          </mxGeometry>
        </mxCell>
        <mxCell id="OVfps-vngCJTd8kqbnHQ-16" value="frag" style="text;html=1;align=center;verticalAlign=middle;resizable=0;points=[];autosize=1;strokeColor=none;fillColor=none;" parent="C5J7aSq_G2JUmF--GPMT-1" vertex="1">
          <mxGeometry x="390" y="75" width="40" height="20" as="geometry" />
        </mxCell>
        <mxCell id="0TCNY8-GAST-M18cTMAJ-0" value="" style="rounded=1;whiteSpace=wrap;html=1;strokeWidth=2;fillWeight=1;hachureGap=4;hachureAngle=45;sketch=0;" parent="C5J7aSq_G2JUmF--GPMT-1" vertex="1">
          <mxGeometry x="390" y="190" width="230" height="100" as="geometry" />
        </mxCell>
        <mxCell id="0TCNY8-GAST-M18cTMAJ-1" value="" style="rounded=1;whiteSpace=wrap;html=1;strokeWidth=2;fillWeight=1;hachureGap=4;hachureAngle=45;sketch=0;fillColor=#d5e8d4;strokeColor=#82b366;" parent="C5J7aSq_G2JUmF--GPMT-1" vertex="1">
          <mxGeometry x="400" y="210" width="140" height="70" as="geometry" />
        </mxCell>
        <mxCell id="0TCNY8-GAST-M18cTMAJ-2" value="CInode" style="text;html=1;align=center;verticalAlign=middle;resizable=0;points=[];autosize=1;strokeColor=none;fillColor=none;" parent="C5J7aSq_G2JUmF--GPMT-1" vertex="1">
          <mxGeometry x="470" y="190" width="50" height="20" as="geometry" />
        </mxCell>
        <mxCell id="0TCNY8-GAST-M18cTMAJ-16" style="edgeStyle=orthogonalEdgeStyle;rounded=0;orthogonalLoop=1;jettySize=auto;html=1;curved=1;sketch=0;" parent="C5J7aSq_G2JUmF--GPMT-1" source="0TCNY8-GAST-M18cTMAJ-3" target="0TCNY8-GAST-M18cTMAJ-11" edge="1">
          <mxGeometry relative="1" as="geometry" />
        </mxCell>
        <mxCell id="0TCNY8-GAST-M18cTMAJ-3" value="frag_t" style="rounded=1;whiteSpace=wrap;html=1;sketch=0;fillColor=#dae8fc;strokeColor=#6c8ebf;fillWeight=1;hachureGap=4;strokeWidth=2;" parent="C5J7aSq_G2JUmF--GPMT-1" vertex="1">
          <mxGeometry x="410" y="230" width="40" height="40" as="geometry" />
        </mxCell>
        <mxCell id="0TCNY8-GAST-M18cTMAJ-4" value="..." style="rounded=1;whiteSpace=wrap;html=1;sketch=0;fillColor=#dae8fc;strokeColor=#6c8ebf;fillWeight=1;hachureGap=4;strokeWidth=2;" parent="C5J7aSq_G2JUmF--GPMT-1" vertex="1">
          <mxGeometry x="490" y="230" width="40" height="40" as="geometry" />
        </mxCell>
        <mxCell id="0TCNY8-GAST-M18cTMAJ-5" value="dirfrags" style="text;html=1;align=center;verticalAlign=middle;resizable=0;points=[];autosize=1;strokeColor=none;fillColor=none;" parent="C5J7aSq_G2JUmF--GPMT-1" vertex="1">
          <mxGeometry x="440" y="210" width="60" height="20" as="geometry" />
        </mxCell>
        <mxCell id="0TCNY8-GAST-M18cTMAJ-21" style="edgeStyle=orthogonalEdgeStyle;curved=1;rounded=0;sketch=0;orthogonalLoop=1;jettySize=auto;html=1;" parent="C5J7aSq_G2JUmF--GPMT-1" source="0TCNY8-GAST-M18cTMAJ-6" target="0TCNY8-GAST-M18cTMAJ-18" edge="1">
          <mxGeometry relative="1" as="geometry" />
        </mxCell>
        <mxCell id="0TCNY8-GAST-M18cTMAJ-6" value="frag_t" style="rounded=1;whiteSpace=wrap;html=1;sketch=0;fillColor=#dae8fc;strokeColor=#6c8ebf;fillWeight=1;hachureGap=4;strokeWidth=2;" parent="C5J7aSq_G2JUmF--GPMT-1" vertex="1">
          <mxGeometry x="450" y="230" width="40" height="40" as="geometry" />
        </mxCell>
        <mxCell id="0TCNY8-GAST-M18cTMAJ-8" value="dirfragtree" style="rounded=1;whiteSpace=wrap;html=1;strokeWidth=2;fillWeight=1;hachureGap=4;hachureAngle=45;sketch=0;fillColor=#d5e8d4;strokeColor=#82b366;" parent="C5J7aSq_G2JUmF--GPMT-1" vertex="1">
          <mxGeometry x="550" y="210" width="60" height="70" as="geometry" />
        </mxCell>
        <mxCell id="0TCNY8-GAST-M18cTMAJ-29" style="edgeStyle=orthogonalEdgeStyle;curved=1;rounded=0;sketch=0;orthogonalLoop=1;jettySize=auto;html=1;entryX=0.5;entryY=0;entryDx=0;entryDy=0;" parent="C5J7aSq_G2JUmF--GPMT-1" source="0TCNY8-GAST-M18cTMAJ-10" target="0TCNY8-GAST-M18cTMAJ-27" edge="1">
          <mxGeometry relative="1" as="geometry" />
        </mxCell>
        <mxCell id="0TCNY8-GAST-M18cTMAJ-10" value="" style="rounded=1;whiteSpace=wrap;html=1;strokeWidth=2;fillWeight=1;hachureGap=4;hachureAngle=45;sketch=0;fillColor=#dae8fc;strokeColor=#6c8ebf;" parent="C5J7aSq_G2JUmF--GPMT-1" vertex="1">
          <mxGeometry x="390" y="320" width="60" height="70" as="geometry" />
        </mxCell>
        <mxCell id="0TCNY8-GAST-M18cTMAJ-11" value="CDir" style="text;html=1;align=center;verticalAlign=middle;resizable=0;points=[];autosize=1;strokeColor=none;fillColor=none;" parent="C5J7aSq_G2JUmF--GPMT-1" vertex="1">
          <mxGeometry x="400" y="320" width="40" height="20" as="geometry" />
        </mxCell>
        <mxCell id="0TCNY8-GAST-M18cTMAJ-12" value="" style="rounded=1;whiteSpace=wrap;html=1;strokeWidth=2;fillWeight=1;hachureGap=4;hachureAngle=45;sketch=0;" parent="C5J7aSq_G2JUmF--GPMT-1" vertex="1">
          <mxGeometry x="400" y="340" width="40" height="40" as="geometry" />
        </mxCell>
        <mxCell id="0TCNY8-GAST-M18cTMAJ-15" value="Items" style="text;html=1;align=center;verticalAlign=middle;resizable=0;points=[];autosize=1;strokeColor=none;fillColor=none;" parent="C5J7aSq_G2JUmF--GPMT-1" vertex="1">
          <mxGeometry x="400" y="350" width="40" height="20" as="geometry" />
        </mxCell>
        <mxCell id="0TCNY8-GAST-M18cTMAJ-30" style="edgeStyle=orthogonalEdgeStyle;curved=1;rounded=0;sketch=0;orthogonalLoop=1;jettySize=auto;html=1;entryX=0.5;entryY=0;entryDx=0;entryDy=0;" parent="C5J7aSq_G2JUmF--GPMT-1" source="0TCNY8-GAST-M18cTMAJ-17" target="0TCNY8-GAST-M18cTMAJ-28" edge="1">
          <mxGeometry relative="1" as="geometry" />
        </mxCell>
        <mxCell id="0TCNY8-GAST-M18cTMAJ-17" value="" style="rounded=1;whiteSpace=wrap;html=1;strokeWidth=2;fillWeight=1;hachureGap=4;hachureAngle=45;sketch=0;fillColor=#dae8fc;strokeColor=#6c8ebf;" parent="C5J7aSq_G2JUmF--GPMT-1" vertex="1">
          <mxGeometry x="465" y="320" width="60" height="70" as="geometry" />
        </mxCell>
        <mxCell id="0TCNY8-GAST-M18cTMAJ-18" value="CDir" style="text;html=1;align=center;verticalAlign=middle;resizable=0;points=[];autosize=1;strokeColor=none;fillColor=none;" parent="C5J7aSq_G2JUmF--GPMT-1" vertex="1">
          <mxGeometry x="475" y="320" width="40" height="20" as="geometry" />
        </mxCell>
        <mxCell id="0TCNY8-GAST-M18cTMAJ-24" value="MDS" style="text;html=1;align=center;verticalAlign=middle;resizable=0;points=[];autosize=1;strokeColor=none;fillColor=none;fontStyle=1" parent="C5J7aSq_G2JUmF--GPMT-1" vertex="1">
          <mxGeometry x="565" y="320" width="40" height="20" as="geometry" />
        </mxCell>
        <mxCell id="0TCNY8-GAST-M18cTMAJ-26" value="RADOS" style="text;html=1;align=center;verticalAlign=middle;resizable=0;points=[];autosize=1;strokeColor=none;fillColor=none;fontStyle=1" parent="C5J7aSq_G2JUmF--GPMT-1" vertex="1">
          <mxGeometry x="555" y="440" width="60" height="20" as="geometry" />
        </mxCell>
        <mxCell id="0TCNY8-GAST-M18cTMAJ-27" value="" style="rounded=1;whiteSpace=wrap;html=1;sketch=0;fillColor=#dae8fc;strokeColor=#6c8ebf;fillWeight=1;hachureGap=4;strokeWidth=2;" parent="C5J7aSq_G2JUmF--GPMT-1" vertex="1">
          <mxGeometry x="410" y="440" width="20" height="20" as="geometry" />
        </mxCell>
        <mxCell id="0TCNY8-GAST-M18cTMAJ-28" value="" style="rounded=1;whiteSpace=wrap;html=1;sketch=0;fillColor=#dae8fc;strokeColor=#6c8ebf;fillWeight=1;hachureGap=4;strokeWidth=2;" parent="C5J7aSq_G2JUmF--GPMT-1" vertex="1">
          <mxGeometry x="485" y="440" width="20" height="20" as="geometry" />
        </mxCell>
        <mxCell id="0TCNY8-GAST-M18cTMAJ-33" value="" style="rounded=1;whiteSpace=wrap;html=1;sketch=0;fillColor=#dae8fc;strokeColor=#6c8ebf;fillWeight=1;hachureGap=4;strokeWidth=2;" parent="C5J7aSq_G2JUmF--GPMT-1" vertex="1">
          <mxGeometry x="449.76" y="440" width="20" height="20" as="geometry" />
        </mxCell>
        <mxCell id="0TCNY8-GAST-M18cTMAJ-34" value="" style="rounded=1;whiteSpace=wrap;html=1;sketch=0;fillColor=#dae8fc;strokeColor=#6c8ebf;fillWeight=1;hachureGap=4;strokeWidth=2;" parent="C5J7aSq_G2JUmF--GPMT-1" vertex="1">
          <mxGeometry x="525" y="440" width="20" height="20" as="geometry" />
        </mxCell>
        <mxCell id="YFz_euu3_MOi2rQfzj05-2" value="" style="edgeStyle=orthogonalEdgeStyle;rounded=0;orthogonalLoop=1;jettySize=auto;html=1;sketch=0;curved=1;" parent="C5J7aSq_G2JUmF--GPMT-1" source="YFz_euu3_MOi2rQfzj05-0" target="YFz_euu3_MOi2rQfzj05-1" edge="1">
          <mxGeometry relative="1" as="geometry" />
        </mxCell>
        <mxCell id="YFz_euu3_MOi2rQfzj05-9" style="edgeStyle=orthogonalEdgeStyle;rounded=0;sketch=0;orthogonalLoop=1;jettySize=auto;html=1;curved=1;exitX=1;exitY=0.5;exitDx=0;exitDy=0;entryX=0.064;entryY=-0.009;entryDx=0;entryDy=0;entryPerimeter=0;" parent="C5J7aSq_G2JUmF--GPMT-1" source="YFz_euu3_MOi2rQfzj05-0" target="YFz_euu3_MOi2rQfzj05-26" edge="1">
          <mxGeometry relative="1" as="geometry" />
        </mxCell>
        <mxCell id="YFz_euu3_MOi2rQfzj05-0" value="(0,3)" style="rounded=1;whiteSpace=wrap;html=1;sketch=0;fillWeight=1;hachureGap=4;strokeWidth=2;" parent="C5J7aSq_G2JUmF--GPMT-1" vertex="1">
          <mxGeometry x="190" y="520" width="40" height="40" as="geometry" />
        </mxCell>
        <mxCell id="YFz_euu3_MOi2rQfzj05-41" style="edgeStyle=orthogonalEdgeStyle;curved=1;rounded=0;sketch=0;orthogonalLoop=1;jettySize=auto;html=1;entryX=0.049;entryY=0;entryDx=0;entryDy=0;entryPerimeter=0;" parent="C5J7aSq_G2JUmF--GPMT-1" source="YFz_euu3_MOi2rQfzj05-1" target="YFz_euu3_MOi2rQfzj05-27" edge="1">
          <mxGeometry relative="1" as="geometry" />
        </mxCell>
        <mxCell id="YFz_euu3_MOi2rQfzj05-1" value="(000,3)" style="rounded=1;whiteSpace=wrap;html=1;sketch=0;fillWeight=1;hachureGap=4;strokeWidth=2;" parent="C5J7aSq_G2JUmF--GPMT-1" vertex="1">
          <mxGeometry x="190" y="599" width="40" height="40" as="geometry" />
        </mxCell>
        <mxCell id="YFz_euu3_MOi2rQfzj05-3" value="001" style="rounded=1;whiteSpace=wrap;html=1;sketch=0;fillWeight=1;hachureGap=4;strokeWidth=2;fillColor=#dae8fc;strokeColor=#6c8ebf;" parent="C5J7aSq_G2JUmF--GPMT-1" vertex="1">
          <mxGeometry x="250" y="566" width="40" height="40" as="geometry" />
        </mxCell>
        <mxCell id="YFz_euu3_MOi2rQfzj05-4" value="010" style="rounded=1;whiteSpace=wrap;html=1;sketch=0;fillWeight=1;hachureGap=4;strokeWidth=2;fillColor=#dae8fc;strokeColor=#6c8ebf;" parent="C5J7aSq_G2JUmF--GPMT-1" vertex="1">
          <mxGeometry x="300" y="566" width="40" height="40" as="geometry" />
        </mxCell>
        <mxCell id="YFz_euu3_MOi2rQfzj05-5" value="011" style="rounded=1;whiteSpace=wrap;html=1;sketch=0;fillWeight=1;hachureGap=4;strokeWidth=2;fillColor=#dae8fc;strokeColor=#6c8ebf;" parent="C5J7aSq_G2JUmF--GPMT-1" vertex="1">
          <mxGeometry x="350" y="566" width="40" height="40" as="geometry" />
        </mxCell>
        <mxCell id="Sqe7N56VStj4oBjctmM2-55" style="edgeStyle=orthogonalEdgeStyle;rounded=0;sketch=0;orthogonalLoop=1;jettySize=auto;html=1;" edge="1" parent="C5J7aSq_G2JUmF--GPMT-1" source="YFz_euu3_MOi2rQfzj05-6">
          <mxGeometry relative="1" as="geometry">
            <mxPoint x="420" y="635" as="targetPoint" />
          </mxGeometry>
        </mxCell>
        <mxCell id="YFz_euu3_MOi2rQfzj05-6" value="100" style="rounded=1;whiteSpace=wrap;html=1;sketch=0;fillWeight=1;hachureGap=4;strokeWidth=2;fillColor=#dae8fc;strokeColor=#6c8ebf;" parent="C5J7aSq_G2JUmF--GPMT-1" vertex="1">
          <mxGeometry x="400" y="566" width="40" height="40" as="geometry" />
        </mxCell>
        <mxCell id="YFz_euu3_MOi2rQfzj05-7" value="101" style="rounded=1;whiteSpace=wrap;html=1;sketch=0;fillWeight=1;hachureGap=4;strokeWidth=2;fillColor=#dae8fc;strokeColor=#6c8ebf;" parent="C5J7aSq_G2JUmF--GPMT-1" vertex="1">
          <mxGeometry x="450" y="566" width="40" height="40" as="geometry" />
        </mxCell>
        <mxCell id="YFz_euu3_MOi2rQfzj05-8" value="110" style="rounded=1;whiteSpace=wrap;html=1;sketch=0;fillWeight=1;hachureGap=4;strokeWidth=2;strokeColor=#6c8ebf;fillColor=#dae8fc;" parent="C5J7aSq_G2JUmF--GPMT-1" vertex="1">
          <mxGeometry x="500" y="566" width="40" height="40" as="geometry" />
        </mxCell>
        <mxCell id="YFz_euu3_MOi2rQfzj05-15" value="111" style="rounded=1;whiteSpace=wrap;html=1;sketch=0;fillWeight=1;hachureGap=4;strokeWidth=2;fillColor=#dae8fc;strokeColor=#6c8ebf;" parent="C5J7aSq_G2JUmF--GPMT-1" vertex="1">
          <mxGeometry x="550" y="566" width="40" height="40" as="geometry" />
        </mxCell>
        <mxCell id="YFz_euu3_MOi2rQfzj05-17" value="000" style="rounded=1;whiteSpace=wrap;html=1;sketch=0;fillWeight=1;hachureGap=4;strokeWidth=2;glass=0;strokeColor=#6c8ebf;fillColor=#dae8fc;" parent="C5J7aSq_G2JUmF--GPMT-1" vertex="1">
          <mxGeometry x="200" y="680" width="40" height="40" as="geometry" />
        </mxCell>
        <mxCell id="Sqe7N56VStj4oBjctmM2-53" style="edgeStyle=orthogonalEdgeStyle;rounded=0;sketch=0;orthogonalLoop=1;jettySize=auto;html=1;entryX=0.22;entryY=0.996;entryDx=0;entryDy=0;entryPerimeter=0;" edge="1" parent="C5J7aSq_G2JUmF--GPMT-1" source="YFz_euu3_MOi2rQfzj05-18" target="Sqe7N56VStj4oBjctmM2-52">
          <mxGeometry relative="1" as="geometry">
            <mxPoint x="270" y="660" as="targetPoint" />
          </mxGeometry>
        </mxCell>
        <mxCell id="YFz_euu3_MOi2rQfzj05-18" value="001" style="rounded=1;whiteSpace=wrap;html=1;sketch=0;fillWeight=1;hachureGap=4;strokeWidth=2;fillColor=#dae8fc;strokeColor=#6c8ebf;" parent="C5J7aSq_G2JUmF--GPMT-1" vertex="1">
          <mxGeometry x="250" y="680" width="40" height="40" as="geometry" />
        </mxCell>
        <mxCell id="YFz_euu3_MOi2rQfzj05-19" value="010" style="rounded=1;whiteSpace=wrap;html=1;sketch=0;fillWeight=1;hachureGap=4;strokeWidth=2;fillColor=#dae8fc;strokeColor=#6c8ebf;" parent="C5J7aSq_G2JUmF--GPMT-1" vertex="1">
          <mxGeometry x="300" y="680" width="40" height="40" as="geometry" />
        </mxCell>
        <mxCell id="YFz_euu3_MOi2rQfzj05-20" value="100" style="rounded=1;whiteSpace=wrap;html=1;sketch=0;fillWeight=1;hachureGap=4;strokeWidth=2;fillColor=#dae8fc;strokeColor=#6c8ebf;" parent="C5J7aSq_G2JUmF--GPMT-1" vertex="1">
          <mxGeometry x="350" y="680" width="40" height="40" as="geometry" />
        </mxCell>
        <mxCell id="YFz_euu3_MOi2rQfzj05-21" value="100" style="rounded=1;whiteSpace=wrap;html=1;sketch=0;fillWeight=1;hachureGap=4;strokeWidth=2;fillColor=#dae8fc;strokeColor=#6c8ebf;" parent="C5J7aSq_G2JUmF--GPMT-1" vertex="1">
          <mxGeometry x="400" y="680" width="40" height="40" as="geometry" />
        </mxCell>
        <mxCell id="YFz_euu3_MOi2rQfzj05-22" value="101" style="rounded=1;whiteSpace=wrap;html=1;sketch=0;fillWeight=1;hachureGap=4;strokeWidth=2;fillColor=#dae8fc;strokeColor=#6c8ebf;" parent="C5J7aSq_G2JUmF--GPMT-1" vertex="1">
          <mxGeometry x="450" y="680" width="40" height="40" as="geometry" />
        </mxCell>
        <mxCell id="YFz_euu3_MOi2rQfzj05-23" value="110" style="rounded=1;whiteSpace=wrap;html=1;sketch=0;fillWeight=1;hachureGap=4;strokeWidth=2;fillColor=#dae8fc;strokeColor=#6c8ebf;" parent="C5J7aSq_G2JUmF--GPMT-1" vertex="1">
          <mxGeometry x="500" y="680" width="40" height="40" as="geometry" />
        </mxCell>
        <mxCell id="YFz_euu3_MOi2rQfzj05-24" value="111" style="rounded=1;whiteSpace=wrap;html=1;sketch=0;fillWeight=1;hachureGap=4;strokeWidth=2;fillColor=#dae8fc;strokeColor=#6c8ebf;" parent="C5J7aSq_G2JUmF--GPMT-1" vertex="1">
          <mxGeometry x="550" y="680" width="40" height="40" as="geometry" />
        </mxCell>
        <mxCell id="YFz_euu3_MOi2rQfzj05-28" value="" style="rounded=1;whiteSpace=wrap;html=1;sketch=0;fillWeight=1;hachureGap=4;strokeWidth=2;fillColor=#d5e8d4;strokeColor=#82b366;" parent="C5J7aSq_G2JUmF--GPMT-1" vertex="1">
          <mxGeometry x="100" y="520" width="60" height="210" as="geometry" />
        </mxCell>
        <mxCell id="YFz_euu3_MOi2rQfzj05-29" value="fragtree_t" style="text;html=1;align=center;verticalAlign=middle;resizable=0;points=[];autosize=1;strokeColor=none;fillColor=none;" parent="C5J7aSq_G2JUmF--GPMT-1" vertex="1">
          <mxGeometry x="95" y="530" width="70" height="20" as="geometry" />
        </mxCell>
        <mxCell id="YFz_euu3_MOi2rQfzj05-33" style="edgeStyle=orthogonalEdgeStyle;curved=1;rounded=0;sketch=0;orthogonalLoop=1;jettySize=auto;html=1;entryX=0;entryY=0.5;entryDx=0;entryDy=0;" parent="C5J7aSq_G2JUmF--GPMT-1" source="YFz_euu3_MOi2rQfzj05-31" target="YFz_euu3_MOi2rQfzj05-0" edge="1">
          <mxGeometry relative="1" as="geometry" />
        </mxCell>
        <mxCell id="YFz_euu3_MOi2rQfzj05-31" value="(0,3)" style="rounded=1;whiteSpace=wrap;html=1;sketch=0;fillWeight=1;hachureGap=4;strokeWidth=2;" parent="C5J7aSq_G2JUmF--GPMT-1" vertex="1">
          <mxGeometry x="110" y="565" width="40" height="40" as="geometry" />
        </mxCell>
        <mxCell id="YFz_euu3_MOi2rQfzj05-34" style="edgeStyle=orthogonalEdgeStyle;curved=1;rounded=0;sketch=0;orthogonalLoop=1;jettySize=auto;html=1;entryX=0;entryY=0.5;entryDx=0;entryDy=0;" parent="C5J7aSq_G2JUmF--GPMT-1" source="YFz_euu3_MOi2rQfzj05-32" target="YFz_euu3_MOi2rQfzj05-1" edge="1">
          <mxGeometry relative="1" as="geometry" />
        </mxCell>
        <mxCell id="YFz_euu3_MOi2rQfzj05-32" value="(000,3)" style="rounded=1;whiteSpace=wrap;html=1;sketch=0;fillWeight=1;hachureGap=4;strokeWidth=2;" parent="C5J7aSq_G2JUmF--GPMT-1" vertex="1">
          <mxGeometry x="110" y="680" width="40" height="40" as="geometry" />
        </mxCell>
        <mxCell id="YFz_euu3_MOi2rQfzj05-35" value="" style="rounded=1;whiteSpace=wrap;html=1;sketch=0;fillWeight=1;hachureGap=4;strokeWidth=2;" parent="C5J7aSq_G2JUmF--GPMT-1" vertex="1">
          <mxGeometry x="630" y="520" width="60" height="210" as="geometry" />
        </mxCell>
        <mxCell id="YFz_euu3_MOi2rQfzj05-36" value="dirfrags" style="text;html=1;align=center;verticalAlign=middle;resizable=0;points=[];autosize=1;strokeColor=none;fillColor=none;" parent="C5J7aSq_G2JUmF--GPMT-1" vertex="1">
          <mxGeometry x="630" y="530" width="60" height="20" as="geometry" />
        </mxCell>
        <mxCell id="YFz_euu3_MOi2rQfzj05-39" value="CDir" style="rounded=1;whiteSpace=wrap;html=1;strokeWidth=2;fillWeight=1;hachureGap=4;hachureAngle=45;sketch=0;fillColor=#dae8fc;strokeColor=#6c8ebf;" parent="C5J7aSq_G2JUmF--GPMT-1" vertex="1">
          <mxGeometry x="640" y="564" width="40" height="40" as="geometry" />
        </mxCell>
        <mxCell id="YFz_euu3_MOi2rQfzj05-40" value="CDir" style="rounded=1;whiteSpace=wrap;html=1;strokeWidth=2;fillWeight=1;hachureGap=4;hachureAngle=45;sketch=0;fillColor=#dae8fc;strokeColor=#6c8ebf;" parent="C5J7aSq_G2JUmF--GPMT-1" vertex="1">
          <mxGeometry x="640" y="680" width="40" height="40" as="geometry" />
        </mxCell>
        <mxCell id="Sqe7N56VStj4oBjctmM2-0" value="" style="rounded=1;whiteSpace=wrap;html=1;strokeWidth=2;fillWeight=1;hachureGap=4;hachureAngle=45;sketch=0;fillColor=#fff2cc;strokeColor=#d6b656;" vertex="1" parent="C5J7aSq_G2JUmF--GPMT-1">
          <mxGeometry x="475" y="340" width="10" height="10" as="geometry" />
        </mxCell>
        <mxCell id="Sqe7N56VStj4oBjctmM2-1" value="" style="rounded=1;whiteSpace=wrap;html=1;strokeWidth=2;fillWeight=1;hachureGap=4;hachureAngle=45;sketch=0;fillColor=#fff2cc;strokeColor=#d6b656;" vertex="1" parent="C5J7aSq_G2JUmF--GPMT-1">
          <mxGeometry x="485" y="340" width="10" height="10" as="geometry" />
        </mxCell>
        <mxCell id="Sqe7N56VStj4oBjctmM2-2" value="" style="rounded=1;whiteSpace=wrap;html=1;strokeWidth=2;fillWeight=1;hachureGap=4;hachureAngle=45;sketch=0;fillColor=#fff2cc;strokeColor=#d6b656;" vertex="1" parent="C5J7aSq_G2JUmF--GPMT-1">
          <mxGeometry x="495" y="340" width="10" height="10" as="geometry" />
        </mxCell>
        <mxCell id="Sqe7N56VStj4oBjctmM2-3" value="" style="rounded=1;whiteSpace=wrap;html=1;strokeWidth=2;fillWeight=1;hachureGap=4;hachureAngle=45;sketch=0;fillColor=#fff2cc;strokeColor=#d6b656;" vertex="1" parent="C5J7aSq_G2JUmF--GPMT-1">
          <mxGeometry x="505" y="340" width="10" height="10" as="geometry" />
        </mxCell>
        <mxCell id="Sqe7N56VStj4oBjctmM2-4" value="" style="rounded=1;whiteSpace=wrap;html=1;strokeWidth=2;fillWeight=1;hachureGap=4;hachureAngle=45;sketch=0;fillColor=#fff2cc;strokeColor=#d6b656;" vertex="1" parent="C5J7aSq_G2JUmF--GPMT-1">
          <mxGeometry x="475" y="350" width="10" height="10" as="geometry" />
        </mxCell>
        <mxCell id="Sqe7N56VStj4oBjctmM2-5" value="" style="rounded=1;whiteSpace=wrap;html=1;strokeWidth=2;fillWeight=1;hachureGap=4;hachureAngle=45;sketch=0;fillColor=#fff2cc;strokeColor=#d6b656;" vertex="1" parent="C5J7aSq_G2JUmF--GPMT-1">
          <mxGeometry x="475" y="360" width="10" height="10" as="geometry" />
        </mxCell>
        <mxCell id="Sqe7N56VStj4oBjctmM2-6" value="" style="rounded=1;whiteSpace=wrap;html=1;strokeWidth=2;fillWeight=1;hachureGap=4;hachureAngle=45;sketch=0;fillColor=#fff2cc;strokeColor=#d6b656;" vertex="1" parent="C5J7aSq_G2JUmF--GPMT-1">
          <mxGeometry x="475" y="370" width="10" height="10" as="geometry" />
        </mxCell>
        <mxCell id="Sqe7N56VStj4oBjctmM2-7" value="" style="rounded=1;whiteSpace=wrap;html=1;strokeWidth=2;fillWeight=1;hachureGap=4;hachureAngle=45;sketch=0;fillColor=#fff2cc;strokeColor=#d6b656;" vertex="1" parent="C5J7aSq_G2JUmF--GPMT-1">
          <mxGeometry x="485" y="370" width="10" height="10" as="geometry" />
        </mxCell>
        <mxCell id="Sqe7N56VStj4oBjctmM2-8" value="" style="rounded=1;whiteSpace=wrap;html=1;strokeWidth=2;fillWeight=1;hachureGap=4;hachureAngle=45;sketch=0;fillColor=#fff2cc;strokeColor=#d6b656;" vertex="1" parent="C5J7aSq_G2JUmF--GPMT-1">
          <mxGeometry x="485" y="350" width="10" height="10" as="geometry" />
        </mxCell>
        <mxCell id="Sqe7N56VStj4oBjctmM2-9" value="" style="rounded=1;whiteSpace=wrap;html=1;strokeWidth=2;fillWeight=1;hachureGap=4;hachureAngle=45;sketch=0;fillColor=#fff2cc;strokeColor=#d6b656;" vertex="1" parent="C5J7aSq_G2JUmF--GPMT-1">
          <mxGeometry x="485" y="360" width="10" height="10" as="geometry" />
        </mxCell>
        <mxCell id="Sqe7N56VStj4oBjctmM2-10" value="" style="rounded=1;whiteSpace=wrap;html=1;strokeWidth=2;fillWeight=1;hachureGap=4;hachureAngle=45;sketch=0;fillColor=#fff2cc;strokeColor=#d6b656;" vertex="1" parent="C5J7aSq_G2JUmF--GPMT-1">
          <mxGeometry x="495" y="370" width="10" height="10" as="geometry" />
        </mxCell>
        <mxCell id="Sqe7N56VStj4oBjctmM2-11" value="" style="rounded=1;whiteSpace=wrap;html=1;strokeWidth=2;fillWeight=1;hachureGap=4;hachureAngle=45;sketch=0;fillColor=#fff2cc;strokeColor=#d6b656;" vertex="1" parent="C5J7aSq_G2JUmF--GPMT-1">
          <mxGeometry x="495" y="360" width="10" height="10" as="geometry" />
        </mxCell>
        <mxCell id="Sqe7N56VStj4oBjctmM2-12" value="" style="rounded=1;whiteSpace=wrap;html=1;strokeWidth=2;fillWeight=1;hachureGap=4;hachureAngle=45;sketch=0;fillColor=#fff2cc;strokeColor=#d6b656;" vertex="1" parent="C5J7aSq_G2JUmF--GPMT-1">
          <mxGeometry x="505" y="370" width="10" height="10" as="geometry" />
        </mxCell>
        <mxCell id="Sqe7N56VStj4oBjctmM2-13" value="" style="rounded=1;whiteSpace=wrap;html=1;strokeWidth=2;fillWeight=1;hachureGap=4;hachureAngle=45;sketch=0;fillColor=#fff2cc;strokeColor=#d6b656;" vertex="1" parent="C5J7aSq_G2JUmF--GPMT-1">
          <mxGeometry x="495" y="350" width="10" height="10" as="geometry" />
        </mxCell>
        <mxCell id="Sqe7N56VStj4oBjctmM2-14" value="" style="rounded=1;whiteSpace=wrap;html=1;strokeWidth=2;fillWeight=1;hachureGap=4;hachureAngle=45;sketch=0;fillColor=#fff2cc;strokeColor=#d6b656;" vertex="1" parent="C5J7aSq_G2JUmF--GPMT-1">
          <mxGeometry x="505" y="360" width="10" height="10" as="geometry" />
        </mxCell>
        <mxCell id="Sqe7N56VStj4oBjctmM2-15" value="" style="rounded=1;whiteSpace=wrap;html=1;strokeWidth=2;fillWeight=1;hachureGap=4;hachureAngle=45;sketch=0;fillColor=#fff2cc;strokeColor=#d6b656;" vertex="1" parent="C5J7aSq_G2JUmF--GPMT-1">
          <mxGeometry x="505" y="350" width="10" height="10" as="geometry" />
        </mxCell>
        <mxCell id="Sqe7N56VStj4oBjctmM2-23" value="" style="rounded=1;whiteSpace=wrap;html=1;sketch=0;fillColor=#fff2cc;strokeColor=#d6b656;fillWeight=1;hachureGap=4;strokeWidth=2;" vertex="1" parent="C5J7aSq_G2JUmF--GPMT-1">
          <mxGeometry x="290" y="190" width="10" height="10" as="geometry" />
        </mxCell>
        <mxCell id="Sqe7N56VStj4oBjctmM2-24" value="" style="rounded=1;whiteSpace=wrap;html=1;sketch=0;fillColor=#fff2cc;strokeColor=#d6b656;fillWeight=1;hachureGap=4;strokeWidth=2;" vertex="1" parent="C5J7aSq_G2JUmF--GPMT-1">
          <mxGeometry x="300" y="190" width="10" height="10" as="geometry" />
        </mxCell>
        <mxCell id="Sqe7N56VStj4oBjctmM2-25" value="" style="rounded=1;whiteSpace=wrap;html=1;sketch=0;fillColor=#fff2cc;strokeColor=#d6b656;fillWeight=1;hachureGap=4;strokeWidth=2;" vertex="1" parent="C5J7aSq_G2JUmF--GPMT-1">
          <mxGeometry x="310" y="190" width="10" height="10" as="geometry" />
        </mxCell>
        <mxCell id="Sqe7N56VStj4oBjctmM2-26" value="" style="rounded=1;whiteSpace=wrap;html=1;sketch=0;fillColor=#fff2cc;strokeColor=#d6b656;fillWeight=1;hachureGap=4;strokeWidth=2;" vertex="1" parent="C5J7aSq_G2JUmF--GPMT-1">
          <mxGeometry x="320" y="190" width="10" height="10" as="geometry" />
        </mxCell>
        <mxCell id="Sqe7N56VStj4oBjctmM2-27" value="" style="rounded=1;whiteSpace=wrap;html=1;sketch=0;fillColor=#fff2cc;strokeColor=#d6b656;fillWeight=1;hachureGap=4;strokeWidth=2;" vertex="1" parent="C5J7aSq_G2JUmF--GPMT-1">
          <mxGeometry x="290" y="200" width="10" height="10" as="geometry" />
        </mxCell>
        <mxCell id="Sqe7N56VStj4oBjctmM2-28" value="" style="rounded=1;whiteSpace=wrap;html=1;sketch=0;fillColor=#fff2cc;strokeColor=#d6b656;fillWeight=1;hachureGap=4;strokeWidth=2;" vertex="1" parent="C5J7aSq_G2JUmF--GPMT-1">
          <mxGeometry x="300" y="210" width="10" height="10" as="geometry" />
        </mxCell>
        <mxCell id="Sqe7N56VStj4oBjctmM2-29" value="" style="rounded=1;whiteSpace=wrap;html=1;sketch=0;fillColor=#fff2cc;strokeColor=#d6b656;fillWeight=1;hachureGap=4;strokeWidth=2;" vertex="1" parent="C5J7aSq_G2JUmF--GPMT-1">
          <mxGeometry x="310" y="220" width="10" height="10" as="geometry" />
        </mxCell>
        <mxCell id="Sqe7N56VStj4oBjctmM2-30" value="" style="rounded=1;whiteSpace=wrap;html=1;sketch=0;fillColor=#fff2cc;strokeColor=#d6b656;fillWeight=1;hachureGap=4;strokeWidth=2;" vertex="1" parent="C5J7aSq_G2JUmF--GPMT-1">
          <mxGeometry x="320" y="230" width="10" height="10" as="geometry" />
        </mxCell>
        <mxCell id="Sqe7N56VStj4oBjctmM2-31" value="" style="rounded=1;whiteSpace=wrap;html=1;sketch=0;fillColor=#fff2cc;strokeColor=#d6b656;fillWeight=1;hachureGap=4;strokeWidth=2;" vertex="1" parent="C5J7aSq_G2JUmF--GPMT-1">
          <mxGeometry x="290" y="210" width="10" height="10" as="geometry" />
        </mxCell>
        <mxCell id="Sqe7N56VStj4oBjctmM2-32" value="" style="rounded=1;whiteSpace=wrap;html=1;sketch=0;fillColor=#fff2cc;strokeColor=#d6b656;fillWeight=1;hachureGap=4;strokeWidth=2;" vertex="1" parent="C5J7aSq_G2JUmF--GPMT-1">
          <mxGeometry x="300" y="220" width="10" height="10" as="geometry" />
        </mxCell>
        <mxCell id="Sqe7N56VStj4oBjctmM2-33" value="" style="rounded=1;whiteSpace=wrap;html=1;sketch=0;fillColor=#fff2cc;strokeColor=#d6b656;fillWeight=1;hachureGap=4;strokeWidth=2;" vertex="1" parent="C5J7aSq_G2JUmF--GPMT-1">
          <mxGeometry x="310" y="230" width="10" height="10" as="geometry" />
        </mxCell>
        <mxCell id="Sqe7N56VStj4oBjctmM2-34" value="" style="rounded=1;whiteSpace=wrap;html=1;sketch=0;fillColor=#fff2cc;strokeColor=#d6b656;fillWeight=1;hachureGap=4;strokeWidth=2;" vertex="1" parent="C5J7aSq_G2JUmF--GPMT-1">
          <mxGeometry x="320" y="240" width="10" height="10" as="geometry" />
        </mxCell>
        <mxCell id="Sqe7N56VStj4oBjctmM2-35" value="" style="rounded=1;whiteSpace=wrap;html=1;sketch=0;fillColor=#fff2cc;strokeColor=#d6b656;fillWeight=1;hachureGap=4;strokeWidth=2;" vertex="1" parent="C5J7aSq_G2JUmF--GPMT-1">
          <mxGeometry x="300" y="200" width="10" height="10" as="geometry" />
        </mxCell>
        <mxCell id="Sqe7N56VStj4oBjctmM2-36" value="" style="rounded=1;whiteSpace=wrap;html=1;sketch=0;fillColor=#fff2cc;strokeColor=#d6b656;fillWeight=1;hachureGap=4;strokeWidth=2;" vertex="1" parent="C5J7aSq_G2JUmF--GPMT-1">
          <mxGeometry x="310" y="210" width="10" height="10" as="geometry" />
        </mxCell>
        <mxCell id="Sqe7N56VStj4oBjctmM2-37" value="" style="rounded=1;whiteSpace=wrap;html=1;sketch=0;fillColor=#fff2cc;strokeColor=#d6b656;fillWeight=1;hachureGap=4;strokeWidth=2;" vertex="1" parent="C5J7aSq_G2JUmF--GPMT-1">
          <mxGeometry x="320" y="220" width="10" height="10" as="geometry" />
        </mxCell>
        <mxCell id="Sqe7N56VStj4oBjctmM2-38" value="" style="rounded=1;whiteSpace=wrap;html=1;sketch=0;fillColor=#fff2cc;strokeColor=#d6b656;fillWeight=1;hachureGap=4;strokeWidth=2;" vertex="1" parent="C5J7aSq_G2JUmF--GPMT-1">
          <mxGeometry x="310" y="200" width="10" height="10" as="geometry" />
        </mxCell>
        <mxCell id="Sqe7N56VStj4oBjctmM2-39" value="" style="rounded=1;whiteSpace=wrap;html=1;sketch=0;fillColor=#fff2cc;strokeColor=#d6b656;fillWeight=1;hachureGap=4;strokeWidth=2;" vertex="1" parent="C5J7aSq_G2JUmF--GPMT-1">
          <mxGeometry x="320" y="210" width="10" height="10" as="geometry" />
        </mxCell>
        <mxCell id="Sqe7N56VStj4oBjctmM2-40" value="" style="rounded=1;whiteSpace=wrap;html=1;sketch=0;fillColor=#fff2cc;strokeColor=#d6b656;fillWeight=1;hachureGap=4;strokeWidth=2;" vertex="1" parent="C5J7aSq_G2JUmF--GPMT-1">
          <mxGeometry x="320" y="200" width="10" height="10" as="geometry" />
        </mxCell>
        <mxCell id="Sqe7N56VStj4oBjctmM2-41" value="" style="rounded=1;whiteSpace=wrap;html=1;sketch=0;fillColor=#fff2cc;strokeColor=#d6b656;fillWeight=1;hachureGap=4;strokeWidth=2;" vertex="1" parent="C5J7aSq_G2JUmF--GPMT-1">
          <mxGeometry x="290" y="220" width="10" height="10" as="geometry" />
        </mxCell>
        <mxCell id="Sqe7N56VStj4oBjctmM2-42" value="" style="rounded=1;whiteSpace=wrap;html=1;sketch=0;fillColor=#fff2cc;strokeColor=#d6b656;fillWeight=1;hachureGap=4;strokeWidth=2;" vertex="1" parent="C5J7aSq_G2JUmF--GPMT-1">
          <mxGeometry x="300" y="230" width="10" height="10" as="geometry" />
        </mxCell>
        <mxCell id="Sqe7N56VStj4oBjctmM2-43" value="" style="rounded=1;whiteSpace=wrap;html=1;sketch=0;fillColor=#fff2cc;strokeColor=#d6b656;fillWeight=1;hachureGap=4;strokeWidth=2;" vertex="1" parent="C5J7aSq_G2JUmF--GPMT-1">
          <mxGeometry x="310" y="240" width="10" height="10" as="geometry" />
        </mxCell>
        <mxCell id="Sqe7N56VStj4oBjctmM2-44" value="" style="rounded=1;whiteSpace=wrap;html=1;sketch=0;fillColor=#fff2cc;strokeColor=#d6b656;fillWeight=1;hachureGap=4;strokeWidth=2;" vertex="1" parent="C5J7aSq_G2JUmF--GPMT-1">
          <mxGeometry x="290" y="230" width="10" height="10" as="geometry" />
        </mxCell>
        <mxCell id="Sqe7N56VStj4oBjctmM2-45" value="" style="rounded=1;whiteSpace=wrap;html=1;sketch=0;fillColor=#fff2cc;strokeColor=#d6b656;fillWeight=1;hachureGap=4;strokeWidth=2;" vertex="1" parent="C5J7aSq_G2JUmF--GPMT-1">
          <mxGeometry x="300" y="240" width="10" height="10" as="geometry" />
        </mxCell>
        <mxCell id="Sqe7N56VStj4oBjctmM2-46" value="" style="rounded=1;whiteSpace=wrap;html=1;sketch=0;fillColor=#fff2cc;strokeColor=#d6b656;fillWeight=1;hachureGap=4;strokeWidth=2;" vertex="1" parent="C5J7aSq_G2JUmF--GPMT-1">
          <mxGeometry x="290" y="240" width="10" height="10" as="geometry" />
        </mxCell>
        <mxCell id="Sqe7N56VStj4oBjctmM2-47" value="" style="rounded=1;whiteSpace=wrap;html=1;sketch=0;fillColor=#fff2cc;strokeColor=#d6b656;fillWeight=1;hachureGap=4;strokeWidth=2;" vertex="1" parent="C5J7aSq_G2JUmF--GPMT-1">
          <mxGeometry x="290" y="180" width="10" height="10" as="geometry" />
        </mxCell>
        <mxCell id="Sqe7N56VStj4oBjctmM2-48" value="" style="rounded=1;whiteSpace=wrap;html=1;sketch=0;fillColor=#fff2cc;strokeColor=#d6b656;fillWeight=1;hachureGap=4;strokeWidth=2;" vertex="1" parent="C5J7aSq_G2JUmF--GPMT-1">
          <mxGeometry x="300" y="180" width="10" height="10" as="geometry" />
        </mxCell>
        <mxCell id="Sqe7N56VStj4oBjctmM2-49" value="" style="rounded=1;whiteSpace=wrap;html=1;sketch=0;fillColor=#fff2cc;strokeColor=#d6b656;fillWeight=1;hachureGap=4;strokeWidth=2;" vertex="1" parent="C5J7aSq_G2JUmF--GPMT-1">
          <mxGeometry x="310" y="180" width="10" height="10" as="geometry" />
        </mxCell>
        <mxCell id="Sqe7N56VStj4oBjctmM2-50" value="" style="rounded=1;whiteSpace=wrap;html=1;sketch=0;fillColor=#fff2cc;strokeColor=#d6b656;fillWeight=1;hachureGap=4;strokeWidth=2;" vertex="1" parent="C5J7aSq_G2JUmF--GPMT-1">
          <mxGeometry x="320" y="180" width="10" height="10" as="geometry" />
        </mxCell>
        <mxCell id="Sqe7N56VStj4oBjctmM2-52" value="_enc=0x06 00 04 00 00" style="text;html=1;align=center;verticalAlign=middle;resizable=0;points=[];autosize=1;strokeColor=default;fillColor=none;dashed=1;" vertex="1" parent="C5J7aSq_G2JUmF--GPMT-1">
          <mxGeometry x="240" y="636" width="136" height="18" as="geometry" />
        </mxCell>
        <mxCell id="Sqe7N56VStj4oBjctmM2-54" value="_enc=0x03 08 00 00 00" style="text;html=1;align=center;verticalAlign=middle;resizable=0;points=[];autosize=1;strokeColor=default;fillColor=none;dashed=1;" vertex="1" parent="C5J7aSq_G2JUmF--GPMT-1">
          <mxGeometry x="400" y="636" width="136" height="18" as="geometry" />
        </mxCell>
        <mxCell id="Sqe7N56VStj4oBjctmM2-56" value="" style="rounded=1;whiteSpace=wrap;html=1;strokeWidth=2;fillWeight=1;hachureGap=4;hachureAngle=45;sketch=0;fillColor=#dae8fc;strokeColor=#6c8ebf;" vertex="1" parent="C5J7aSq_G2JUmF--GPMT-1">
          <mxGeometry x="160" y="760" width="60" height="40" as="geometry" />
        </mxCell>
        <mxCell id="Sqe7N56VStj4oBjctmM2-57" value="CDir" style="text;html=1;align=center;verticalAlign=middle;resizable=0;points=[];autosize=1;strokeColor=none;fillColor=none;" vertex="1" parent="C5J7aSq_G2JUmF--GPMT-1">
          <mxGeometry x="170" y="760" width="40" height="20" as="geometry" />
        </mxCell>
        <mxCell id="Sqe7N56VStj4oBjctmM2-78" style="edgeStyle=orthogonalEdgeStyle;rounded=0;sketch=0;orthogonalLoop=1;jettySize=auto;html=1;entryX=0.5;entryY=0;entryDx=0;entryDy=0;entryPerimeter=0;curved=1;" edge="1" parent="C5J7aSq_G2JUmF--GPMT-1" source="Sqe7N56VStj4oBjctmM2-59" target="Sqe7N56VStj4oBjctmM2-77">
          <mxGeometry relative="1" as="geometry" />
        </mxCell>
        <mxCell id="Sqe7N56VStj4oBjctmM2-59" value="" style="rounded=1;whiteSpace=wrap;html=1;strokeWidth=2;fillWeight=1;hachureGap=4;hachureAngle=45;sketch=0;fillColor=#fff2cc;strokeColor=#d6b656;" vertex="1" parent="C5J7aSq_G2JUmF--GPMT-1">
          <mxGeometry x="170" y="780" width="10" height="10" as="geometry" />
        </mxCell>
        <mxCell id="Sqe7N56VStj4oBjctmM2-83" style="edgeStyle=orthogonalEdgeStyle;curved=1;rounded=0;sketch=0;orthogonalLoop=1;jettySize=auto;html=1;exitX=0.5;exitY=1;exitDx=0;exitDy=0;entryX=0.48;entryY=0.01;entryDx=0;entryDy=0;entryPerimeter=0;" edge="1" parent="C5J7aSq_G2JUmF--GPMT-1" source="Sqe7N56VStj4oBjctmM2-60" target="Sqe7N56VStj4oBjctmM2-101">
          <mxGeometry relative="1" as="geometry">
            <mxPoint x="230" y="830" as="targetPoint" />
          </mxGeometry>
        </mxCell>
        <mxCell id="Sqe7N56VStj4oBjctmM2-60" value="" style="rounded=1;whiteSpace=wrap;html=1;strokeWidth=2;fillWeight=1;hachureGap=4;hachureAngle=45;sketch=0;fillColor=#fff2cc;strokeColor=#d6b656;" vertex="1" parent="C5J7aSq_G2JUmF--GPMT-1">
          <mxGeometry x="180" y="780" width="10" height="10" as="geometry" />
        </mxCell>
        <mxCell id="Sqe7N56VStj4oBjctmM2-90" style="edgeStyle=orthogonalEdgeStyle;curved=1;rounded=0;sketch=0;orthogonalLoop=1;jettySize=auto;html=1;exitX=0.5;exitY=1;exitDx=0;exitDy=0;entryX=0.53;entryY=0.03;entryDx=0;entryDy=0;entryPerimeter=0;" edge="1" parent="C5J7aSq_G2JUmF--GPMT-1" source="Sqe7N56VStj4oBjctmM2-61" target="Sqe7N56VStj4oBjctmM2-98">
          <mxGeometry relative="1" as="geometry">
            <mxPoint x="150" y="830" as="targetPoint" />
          </mxGeometry>
        </mxCell>
        <mxCell id="Sqe7N56VStj4oBjctmM2-61" value="" style="rounded=1;whiteSpace=wrap;html=1;strokeWidth=2;fillWeight=1;hachureGap=4;hachureAngle=45;sketch=0;fillColor=#fff2cc;strokeColor=#d6b656;" vertex="1" parent="C5J7aSq_G2JUmF--GPMT-1">
          <mxGeometry x="190" y="780" width="10" height="10" as="geometry" />
        </mxCell>
        <mxCell id="Sqe7N56VStj4oBjctmM2-91" style="edgeStyle=orthogonalEdgeStyle;curved=1;rounded=0;sketch=0;orthogonalLoop=1;jettySize=auto;html=1;entryX=0.52;entryY=0.05;entryDx=0;entryDy=0;entryPerimeter=0;" edge="1" parent="C5J7aSq_G2JUmF--GPMT-1" source="Sqe7N56VStj4oBjctmM2-62" target="Sqe7N56VStj4oBjctmM2-107">
          <mxGeometry relative="1" as="geometry">
            <mxPoint x="300.32000000000005" y="829.6600000000001" as="targetPoint" />
          </mxGeometry>
        </mxCell>
        <mxCell id="Sqe7N56VStj4oBjctmM2-62" value="" style="rounded=1;whiteSpace=wrap;html=1;strokeWidth=2;fillWeight=1;hachureGap=4;hachureAngle=45;sketch=0;fillColor=#fff2cc;strokeColor=#d6b656;" vertex="1" parent="C5J7aSq_G2JUmF--GPMT-1">
          <mxGeometry x="200" y="780" width="10" height="10" as="geometry" />
        </mxCell>
        <mxCell id="Sqe7N56VStj4oBjctmM2-75" value="" style="rounded=1;whiteSpace=wrap;html=1;strokeWidth=2;fillWeight=1;hachureGap=4;hachureAngle=45;sketch=0;fillColor=#dae8fc;strokeColor=none;dashed=1;" vertex="1" parent="C5J7aSq_G2JUmF--GPMT-1">
          <mxGeometry x="60" y="830" width="50" height="40" as="geometry" />
        </mxCell>
        <mxCell id="Sqe7N56VStj4oBjctmM2-76" value="" style="rounded=1;whiteSpace=wrap;html=1;strokeWidth=2;fillWeight=1;hachureGap=4;hachureAngle=45;sketch=0;fillColor=#fff2cc;strokeColor=#d6b656;" vertex="1" parent="C5J7aSq_G2JUmF--GPMT-1">
          <mxGeometry x="80" y="850" width="10" height="10" as="geometry" />
        </mxCell>
        <mxCell id="Sqe7N56VStj4oBjctmM2-77" value="CDir" style="text;html=1;align=center;verticalAlign=middle;resizable=0;points=[];autosize=1;strokeColor=none;fillColor=none;" vertex="1" parent="C5J7aSq_G2JUmF--GPMT-1">
          <mxGeometry x="65" y="830" width="40" height="20" as="geometry" />
        </mxCell>
        <mxCell id="Sqe7N56VStj4oBjctmM2-95" value="split" style="text;html=1;align=center;verticalAlign=middle;resizable=0;points=[];autosize=1;strokeColor=none;fillColor=none;" vertex="1" parent="C5J7aSq_G2JUmF--GPMT-1">
          <mxGeometry x="50" y="790" width="40" height="20" as="geometry" />
        </mxCell>
        <mxCell id="Sqe7N56VStj4oBjctmM2-96" value="" style="rounded=1;whiteSpace=wrap;html=1;strokeWidth=2;fillWeight=1;hachureGap=4;hachureAngle=45;sketch=0;fillColor=#dae8fc;strokeColor=none;dashed=1;" vertex="1" parent="C5J7aSq_G2JUmF--GPMT-1">
          <mxGeometry x="130" y="830" width="50" height="40" as="geometry" />
        </mxCell>
        <mxCell id="Sqe7N56VStj4oBjctmM2-97" value="" style="rounded=1;whiteSpace=wrap;html=1;strokeWidth=2;fillWeight=1;hachureGap=4;hachureAngle=45;sketch=0;fillColor=#fff2cc;strokeColor=#d6b656;" vertex="1" parent="C5J7aSq_G2JUmF--GPMT-1">
          <mxGeometry x="150" y="850" width="10" height="10" as="geometry" />
        </mxCell>
        <mxCell id="Sqe7N56VStj4oBjctmM2-98" value="CDir" style="text;html=1;align=center;verticalAlign=middle;resizable=0;points=[];autosize=1;strokeColor=none;fillColor=none;" vertex="1" parent="C5J7aSq_G2JUmF--GPMT-1">
          <mxGeometry x="135" y="830" width="40" height="20" as="geometry" />
        </mxCell>
        <mxCell id="Sqe7N56VStj4oBjctmM2-99" value="" style="rounded=1;whiteSpace=wrap;html=1;strokeWidth=2;fillWeight=1;hachureGap=4;hachureAngle=45;sketch=0;fillColor=#dae8fc;strokeColor=none;dashed=1;" vertex="1" parent="C5J7aSq_G2JUmF--GPMT-1">
          <mxGeometry x="200" y="830" width="50" height="40" as="geometry" />
        </mxCell>
        <mxCell id="Sqe7N56VStj4oBjctmM2-100" value="" style="rounded=1;whiteSpace=wrap;html=1;strokeWidth=2;fillWeight=1;hachureGap=4;hachureAngle=45;sketch=0;fillColor=#fff2cc;strokeColor=#d6b656;" vertex="1" parent="C5J7aSq_G2JUmF--GPMT-1">
          <mxGeometry x="220" y="850" width="10" height="10" as="geometry" />
        </mxCell>
        <mxCell id="Sqe7N56VStj4oBjctmM2-101" value="CDir" style="text;html=1;align=center;verticalAlign=middle;resizable=0;points=[];autosize=1;strokeColor=none;fillColor=none;" vertex="1" parent="C5J7aSq_G2JUmF--GPMT-1">
          <mxGeometry x="205" y="830" width="40" height="20" as="geometry" />
        </mxCell>
        <mxCell id="Sqe7N56VStj4oBjctmM2-102" value="" style="rounded=1;whiteSpace=wrap;html=1;strokeWidth=2;fillWeight=1;hachureGap=4;hachureAngle=45;sketch=0;fillColor=#dae8fc;strokeColor=none;dashed=1;" vertex="1" parent="C5J7aSq_G2JUmF--GPMT-1">
          <mxGeometry x="270" y="830" width="50" height="40" as="geometry" />
        </mxCell>
        <mxCell id="Sqe7N56VStj4oBjctmM2-103" value="" style="rounded=1;whiteSpace=wrap;html=1;strokeWidth=2;fillWeight=1;hachureGap=4;hachureAngle=45;sketch=0;fillColor=#fff2cc;strokeColor=#d6b656;" vertex="1" parent="C5J7aSq_G2JUmF--GPMT-1">
          <mxGeometry x="290" y="850" width="10" height="10" as="geometry" />
        </mxCell>
        <mxCell id="Sqe7N56VStj4oBjctmM2-104" value="CDir" style="text;html=1;align=center;verticalAlign=middle;resizable=0;points=[];autosize=1;strokeColor=none;fillColor=none;" vertex="1" parent="C5J7aSq_G2JUmF--GPMT-1">
          <mxGeometry x="275" y="830" width="40" height="20" as="geometry" />
        </mxCell>
        <mxCell id="Sqe7N56VStj4oBjctmM2-105" value="" style="rounded=1;whiteSpace=wrap;html=1;strokeWidth=2;fillWeight=1;hachureGap=4;hachureAngle=45;sketch=0;fillColor=#dae8fc;strokeColor=none;dashed=1;" vertex="1" parent="C5J7aSq_G2JUmF--GPMT-1">
          <mxGeometry x="340" y="830" width="50" height="40" as="geometry" />
        </mxCell>
        <mxCell id="Sqe7N56VStj4oBjctmM2-106" value="" style="rounded=1;whiteSpace=wrap;html=1;strokeWidth=2;fillWeight=1;hachureGap=4;hachureAngle=45;sketch=0;fillColor=#fff2cc;strokeColor=#d6b656;" vertex="1" parent="C5J7aSq_G2JUmF--GPMT-1">
          <mxGeometry x="360" y="850" width="10" height="10" as="geometry" />
        </mxCell>
        <mxCell id="Sqe7N56VStj4oBjctmM2-107" value="CDir" style="text;html=1;align=center;verticalAlign=middle;resizable=0;points=[];autosize=1;strokeColor=none;fillColor=none;" vertex="1" parent="C5J7aSq_G2JUmF--GPMT-1">
          <mxGeometry x="345" y="830" width="40" height="20" as="geometry" />
        </mxCell>
        <mxCell id="Sqe7N56VStj4oBjctmM2-109" value="hash" style="text;html=1;align=center;verticalAlign=middle;resizable=0;points=[];autosize=1;strokeColor=none;fillColor=none;" vertex="1" parent="C5J7aSq_G2JUmF--GPMT-1">
          <mxGeometry x="360" y="790" width="40" height="20" as="geometry" />
        </mxCell>
      </root>
    </mxGraphModel>
  </diagram>
</mxfile>
